<svg width="74" height="46" xmlns="http://www.w3.org/2000/svg"><path d="M72.323 11.455c.584-.352.945-.841.948-1.38l.045-7.177c.006-1.12-1.48-2.027-3.325-2.03L58.192.87c-.885 0-1.69.22-2.272.572-.583.354-.945.842-.948 1.381.001 1.083 1.434 1.957 3.206 1.957h8.702l-.035 5.29c-.006 1.077 1.433 1.956 3.206 1.956.887 0 1.69-.218 2.272-.572M54.172 22.462c.585-.354.948-.844.951-1.382l.038-7.173c.006-1.12-1.48-2.027-3.326-2.031h-11.79c-.886 0-1.692.22-2.277.574-.584.354-.948.844-.95 1.383 0 1.082 1.433 1.956 3.206 1.956h8.702l-.03 5.286c-.005 1.079 1.427 1.96 3.2 1.96.886 0 1.691-.219 2.276-.573M36.021 33.468c.584-.354.948-.843.954-1.384l.039-7.173c.005-1.12-1.48-2.027-3.327-2.03h-11.79c-.89.001-1.696.221-2.28.576-.583.353-.945.84-.947 1.38 0 1.083 1.432 1.957 3.205 1.957h8.702l-.035 5.29c-.005 1.078 1.434 1.956 3.206 1.956.887 0 1.69-.218 2.273-.572M17.873 44.473c.582-.353.944-.841.947-1.38l.039-7.173c.006-1.12-1.48-2.027-3.327-2.03H3.742c-.887 0-1.69.218-2.274.572-.583.353-.947.843-.953 1.384 0 1.083 1.44 1.953 3.205 1.957h8.703l-.029 5.285c-.005 1.078 1.433 1.956 3.206 1.956.886 0 1.69-.218 2.273-.57" fill="#C2588B" fill-rule="evenodd" fill-opacity=".2"/></svg>