<svg width="1877" height="680" viewBox="0 0 1877 680" xmlns="http://www.w3.org/2000/svg"><title>Clouds</title><g fill="none" fill-rule="evenodd"><path d="M1840.97 67.94c-2.164 0-4.281.144-6.34.405a43.242 43.242 0 0 0-7.576-4.111c-3.569-13.362-17.688-23.344-34.578-23.344-3.58 0-7.03.453-10.29 1.288-7.315-18.528-28.714-31.945-53.978-31.945-21.839 0-40.787 10.026-50.256 24.708a58.184 58.184 0 0 0-10.967-1.037c-17.188 0-32.14 7.38-39.835 18.257a45.862 45.862 0 0 0-10.063-1.108c-12.859 0-24.29 5.254-31.652 13.421a39.513 39.513 0 0 0-4.853-.298c-17.617 0-31.89 11.536-31.89 25.764 0 14.229 14.273 25.763 31.89 25.763 4.246 0 8.29-.675 11.99-1.891 6.791 4.549 15.284 7.26 24.515 7.26a45.33 45.33 0 0 0 15.023-2.536c8.85 7.386 21.874 12.064 36.422 12.064 13.167 0 25.086-3.832 33.793-10.038 7.72 5.453 17.854 8.768 28.964 8.768 7.03 0 13.655-1.329 19.543-3.678a34.602 34.602 0 0 0 21.541 7.489 34.598 34.598 0 0 0 19.068-5.704c5.245 2.025 11.062 3.163 17.2 3.163 12.144 0 23.064-4.42 30.64-11.463.56.018 1.13.03 1.69.03 19.9 0 36.029-11.468 36.029-25.613 0-14.147-16.13-25.615-36.03-25.615zM119.04 98.838c8.102 0 14.67-4.672 14.67-10.437 0-5.764-6.568-10.437-14.67-10.437-.883 0-1.745.06-2.586.166a17.421 17.421 0 0 0-3.085-1.675c-1.453-5.444-7.203-9.511-14.08-9.511-1.457 0-2.864.183-4.19.523-2.98-7.548-11.695-13.016-21.986-13.016-8.897 0-16.611 4.085-20.467 10.068a23.713 23.713 0 0 0-4.466-.422c-7 0-13.09 3.006-16.222 7.438a18.715 18.715 0 0 0-4.103-.452c-5.233 0-9.89 2.141-12.888 5.47a16.095 16.095 0 0 0-1.98-.122C5.816 76.432 0 81.132 0 86.931c0 5.797 5.815 10.497 12.988 10.497 1.73 0 3.378-.276 4.886-.77 2.763 1.853 6.224 2.957 9.981 2.957 2.165 0 4.229-.369 6.12-1.033 3.603 3.01 8.91 4.915 14.833 4.915 5.362 0 10.22-1.561 13.765-4.09 3.143 2.222 7.272 3.573 11.797 3.573 2.86 0 5.56-.542 7.956-1.498a14.097 14.097 0 0 0 8.774 3.05c2.868 0 5.536-.856 7.768-2.323a19.395 19.395 0 0 0 7.002 1.288c4.946 0 9.394-1.8 12.479-4.67.23.008.459.012.692.012zm623.736 123.11a47.48 47.48 0 0 0-5.986.382 40.402 40.402 0 0 0-7.139-3.88c-3.363-12.609-16.668-22.028-32.582-22.028-3.374 0-6.63.427-9.7 1.215-6.893-17.484-27.061-30.146-50.88-30.146-20.583 0-38.437 9.462-47.358 23.316a54.83 54.83 0 0 0-10.338-.978c-16.197 0-30.29 6.964-37.54 17.229a43.274 43.274 0 0 0-9.495-1.046c-12.11 0-22.884 4.958-29.822 12.665a37.538 37.538 0 0 0-4.581-.28c-16.6 0-30.057 10.884-30.057 24.312 0 13.427 13.457 24.312 30.057 24.312 4 0 7.816-.637 11.307-1.786 6.395 4.294 14.401 6.854 23.096 6.854 5.01 0 9.787-.856 14.165-2.395 8.336 6.97 20.616 11.385 34.323 11.385 12.409 0 23.65-3.616 31.855-9.473 7.276 5.146 16.83 8.274 27.3 8.274 6.619 0 12.868-1.254 18.411-3.471 5.592 4.422 12.64 7.067 20.306 7.067a32.585 32.585 0 0 0 17.974-5.382c4.938 1.912 10.421 2.985 16.205 2.985 11.445 0 21.738-4.172 28.877-10.818.53.018 1.064.029 1.602.029 18.75 0 33.949-10.821 33.949-24.171s-15.2-24.172-33.95-24.172zm-324.31-183.01c-1.18 0-2.338.072-3.47.211-5.253-5.813-13.414-9.55-22.586-9.55-2.483 0-4.893.274-7.19.788-5.491-7.741-16.165-12.992-28.432-12.992-2.7 0-5.322.258-7.829.737C342.203 7.685 328.681.55 313.09.55c-18.037 0-33.312 9.547-38.533 22.733a29.736 29.736 0 0 0-7.346-.916c-12.052 0-22.13 7.103-24.676 16.612a30.761 30.761 0 0 0-5.407 2.925 36.144 36.144 0 0 0-4.533-.288c-14.2 0-25.712 8.16-25.712 18.228 0 10.066 11.512 18.227 25.712 18.227.408 0 .81-.009 1.214-.022 5.405 5.012 13.202 8.158 21.87 8.158 4.38 0 8.533-.81 12.272-2.25a24.756 24.756 0 0 0 13.613 4.058 24.768 24.768 0 0 0 15.378-5.33c4.199 1.672 8.932 2.618 13.944 2.618 7.93 0 15.166-2.359 20.676-6.239 6.214 4.416 14.728 7.143 24.126 7.143 10.38 0 19.681-3.329 25.995-8.586a32.447 32.447 0 0 0 10.727 1.806c6.586 0 12.649-1.93 17.492-5.167a27.56 27.56 0 0 0 8.563 1.346c12.573 0 22.764-8.209 22.764-18.334 0-10.126-10.191-18.334-22.764-18.334z" fill-opacity=".31" fill="#B1E5F9"/><path d="M298.141 256.462c-.98 0-1.938.065-2.871.183a19.425 19.425 0 0 0-3.424-1.862c-1.614-6.053-7.996-10.575-15.629-10.575-1.619 0-3.18.205-4.653.583-3.307-8.394-12.981-14.472-24.406-14.472-9.874 0-18.438 4.542-22.717 11.194a26.224 26.224 0 0 0-4.959-.47c-7.77 0-14.529 3.343-18.008 8.271a20.703 20.703 0 0 0-4.554-.502c-5.809 0-10.977 2.38-14.305 6.08a17.827 17.827 0 0 0-2.197-.135c-7.963 0-14.418 5.226-14.418 11.672 0 6.446 6.455 11.671 14.418 11.671 1.919 0 3.749-.306 5.423-.857 3.068 2.061 6.908 3.29 11.079 3.29 2.403 0 4.695-.411 6.795-1.15 3.998 3.347 9.889 5.466 16.464 5.466 5.952 0 11.345-1.736 15.28-4.547 3.49 2.47 8.073 3.972 13.095 3.972 3.175 0 6.173-.603 8.832-1.667a15.638 15.638 0 0 0 9.74 3.393c3.183 0 6.144-.952 8.622-2.584a21.5 21.5 0 0 0 7.773 1.433c5.49 0 10.427-2.003 13.851-5.193.255.008.511.014.769.014 8.994 0 16.285-5.195 16.285-11.604 0-6.409-7.291-11.604-16.285-11.604" fill-opacity=".68" fill="#B1E5F9"/><path d="M1403.603 666.831c1.067-3.297.673-7.016-1.957-8.376l-2.248-1.168c-1.486-.772-3.138-.879-4.637-.458a8.753 8.753 0 0 0-2.172-1.576c-2.909-1.512-6.275-1.24-8.854.406a8.285 8.285 0 0 0-2.477-1.985c-3.43-1.776-7.38-.939-8.841 1.868-1.448 2.807.152 6.521 3.582 8.297 1.232.64 2.54.93 3.773.92.483 2.615 2.109 4.99 4.65 6.307a8.837 8.837 0 0 0 4.521.978c.153 1.894 1.118 3.705 2.833 4.826l2.122 1.393c9.616 4.68 13.122-6.556 9.705-11.432zm-598.62-240.716a9.549 9.549 0 0 0-1.202-.129c-1.362-2.41-3.871-4.242-7.004-4.784-.848-.148-1.69-.19-2.515-.141-1.298-3.12-4.552-5.647-8.742-6.373a13.773 13.773 0 0 0-2.73-.197c-1.53-4.173-5.616-7.548-10.94-8.47-6.163-1.067-12.091 1.477-14.858 5.929a9.578 9.578 0 0 0-2.44-.766c-4.117-.713-8.09 1.256-9.669 4.54-.72.177-1.41.425-2.064.736-.489-.156-.998-.282-1.527-.373-4.851-.84-9.391 1.426-10.142 5.061-.75 3.635 2.574 7.262 7.425 8.103.139.024.277.044.415.063 1.474 2.13 3.902 3.726 6.863 4.24 1.496.258 2.975.213 4.36-.088a8.004 8.004 0 0 0 4.347 2.272c1.983.343 3.955-.061 5.65-1.015a12.164 12.164 0 0 0 4.567 1.77c2.71.47 5.357.045 7.528-1.03 1.794 1.962 4.498 3.45 7.71 4.006 3.545.614 6.97-.037 9.518-1.562a10.489 10.489 0 0 0 3.53 1.286c2.25.39 4.465.052 6.36-.83.839.469 1.79.814 2.826.992 4.293.744 8.386-1.617 9.142-5.273.755-3.656-2.115-7.223-6.409-7.967zm-533.845-7.974c-.4.055-.792.136-1.172.24-2.023-1.91-4.951-2.915-8.071-2.486-.844.116-1.653.33-2.412.627-2.184-2.612-6.028-4.06-10.2-3.488a13.29 13.29 0 0 0-2.633.638c-2.725-3.557-7.614-5.572-12.916-4.844-6.135.842-10.94 5.093-12.177 10.223a9.353 9.353 0 0 0-2.536.003c-4.098.563-7.236 3.665-7.713 7.309-.624.39-1.2.839-1.719 1.336-.51 0-1.028.032-1.553.105-4.83.662-8.411 4.223-8 7.954.41 3.732 4.659 6.22 9.488 5.558.139-.02.276-.042.412-.065 2.043 1.605 4.823 2.407 7.77 2.003 1.49-.205 2.87-.698 4.083-1.407a7.842 7.842 0 0 0 4.795.869c1.974-.27 3.708-1.26 5.012-2.692 1.496.423 3.145.553 4.85.319 2.697-.369 5.06-1.58 6.775-3.276 2.295 1.347 5.301 1.96 8.498 1.522 3.53-.484 6.557-2.152 8.49-4.395 1.174.276 2.432.346 3.722.17a10.43 10.43 0 0 0 5.737-2.733 8.67 8.67 0 0 0 2.967.1c4.276-.587 7.407-4.104 6.993-7.857-.413-3.753-4.215-6.32-8.49-5.733z" fill="#B3DFEB"/><path d="M631.044 377.225a7.46 7.46 0 0 0-4.919.653 7.164 7.164 0 0 0-1.97-2.053l.033-.563c.245-3.981-2.756-7.409-6.703-7.656l-2.86-.179c-1.886-.118-3.636.526-4.989 1.65a9.934 9.934 0 0 0-2.952-.643c-3.69-.231-7.029 1.586-8.948 4.473a9.22 9.22 0 0 0-3.471-.91c-4.343-.271-8.043 2.413-8.264 5.995-.22 3.583 3.122 6.71 7.463 6.98a9.086 9.086 0 0 0 4.313-.766c1.685 2.493 4.445 4.21 7.662 4.411a9.898 9.898 0 0 0 5.108-1.057c1.016 1.9 2.838 3.338 5.113 3.718l2.826.472c2.89.481 5.654-.858 7.16-3.18a7.872 7.872 0 0 0 3.078 1.386c3.891.795 7.566-1.41 8.207-4.925.642-3.516-1.994-7.01-5.887-7.806" opacity=".84" fill="#FFF"/></g></svg>