<svg width="16" height="10" viewBox="0 0 16 10" xmlns="http://www.w3.org/2000/svg"><title>Combined Shape</title><path d="M4.968 4.284c1.582-.004 3.164-.007 4.748.005.095 1.337-.08 2.76-.896 3.865-1.236 1.75-3.717 2.26-5.652 1.511C1.225 8.92-.15 6.855.013 4.75.056 2.174 2.41-.082 4.968.004c1.226-.057 2.379.48 3.318 1.234-.4.459-.816.9-1.26 1.313-1.128-.785-2.734-1.01-3.863-.102-1.615 1.124-1.689 3.779-.135 4.989 1.51 1.38 4.366.695 4.784-1.418-.947-.014-1.895 0-2.842-.031-.002-.568-.004-1.136-.002-1.705zm9.614.138c.472.005.946.005 1.418.01v1.42c-.472.005-.944.007-1.418.012-.005.477-.007.952-.01 1.427H13.16c-.005-.475-.005-.95-.01-1.425l-1.418-.014v-1.42c.472-.005.944-.008 1.418-.01.002-.477.007-.952.012-1.428h1.411c.003.475.005.953.01 1.428z" fill="#FC6860" fill-rule="evenodd"/></svg>