<svg width="86" height="87" viewBox="0 0 86 87" xmlns="http://www.w3.org/2000/svg"><title>icon_cards</title><defs><linearGradient x1="46.881%" y1="-25.671%" x2="50%" y2="100%" id="a"><stop stop-color="#D24361" offset="0%"/><stop stop-color="#880B22" offset="100%"/></linearGradient><linearGradient x1="50%" y1="0%" x2="50%" y2="307.646%" id="b"><stop stop-color="#D24361" offset="0%"/><stop stop-color="#880B22" offset="100%"/></linearGradient><linearGradient x1="50%" y1="-65.851%" x2="50%" y2="297.525%" id="c"><stop stop-color="#D24361" offset="0%"/><stop stop-color="#880B22" offset="100%"/></linearGradient><linearGradient x1="50%" y1="-1021.807%" x2="50%" y2="1902.06%" id="d"><stop stop-color="#D24361" offset="0%"/><stop stop-color="#880B22" offset="100%"/></linearGradient></defs><g fill="none" fill-rule="evenodd"><path d="M-5-5h96v96H-5z"/><path d="M45.037 22.418c6.819 4.38 14.385-.118 14.385-.118C57.72 29.738 47.85 38.523 40.99 38.405c-6.8-.115-13.426-6.741-13.542-13.541-.006-.414.114-.864.17-1.294 2.244-.21 4.244-.69 5.294-1.291 2.526-1.44 5.304-4.242 12.124.139zM40.96 40.426c-8.225-.143-15.394-7.297-15.531-15.53-.14-8.19 10.336-19.507 18.802-20.643l17.365 17.364c-1.133 8.469-12.448 18.95-20.636 18.809zM45.786.093l-.895.044C34.166.685 21.206 14.375 21.388 24.964c.077 4.482 1.716 8.689 4.518 12.123L11.482 51.51l-7.143-7.143a2.021 2.021 0 1 0-2.86 2.858l9.354 9.352.649.652 7.143 7.142c.792.79 2.068.79 2.857 0a2.015 2.015 0 0 0 0-2.856l-7.142-7.144 14.424-14.424c3.437 2.798 7.638 4.44 12.128 4.519 10.593.18 24.28-12.78 24.82-23.505l.048-.897L45.786.093z" transform="translate(20 22)" fill="url(#a)"/><path d="M11.992 4.226L9.37 14.008h3.844l1.043-3.889 23.319 6.25-2.042 7.625c-.168.624-.876 1.04-1.621.977v3.715c.055.001.11.012.166.012 2.381 0 4.454-1.54 5.044-3.742l3.365-12.558c.726-2.722-.993-5.554-3.837-6.315L18.471.675a5.59 5.59 0 0 0-1.436-.189c-2.381 0-4.453 1.537-5.043 3.74zm3.225 2.307l.362-1.345c.156-.583.754-.989 1.456-.989.158 0 .317.022.474.062l20.18 5.408c.85.228 1.404 1.038 1.209 1.766l-.36 1.347-23.321-6.249z" fill="url(#b)"/><path d="M5.824 15.866c-2.943 0-5.338 2.291-5.338 5.106v13c0 2.816 2.395 5.106 5.338 5.106h20.893c2.945 0 5.34-2.292 5.34-5.106v-13c-.001-2.815-2.394-5.106-5.341-5.106H5.824zM4.201 33.972v-13c0-.754.744-1.39 1.623-1.39h20.893c.882 0 1.625.636 1.625 1.39v13c0 .756-.744 1.393-1.626 1.393H5.824c-.879 0-1.623-.637-1.623-1.393z" fill="url(#c)"/><path d="M7.334 30.187a.927.927 0 0 0-.929.927v.93c0 .512.415.928.929.928h3.713a.928.928 0 0 0 .929-.929v-.929a.927.927 0 0 0-.929-.927H7.334zM14.413 30.187a.928.928 0 0 0-.928.927v.93c0 .512.416.928.928.928h3.715a.93.93 0 0 0 .929-.929v-.929a.929.929 0 0 0-.929-.927h-3.715zM21.493 30.187a.928.928 0 0 0-.928.927v.93c0 .512.415.928.928.928h3.715a.93.93 0 0 0 .929-.929v-.929a.928.928 0 0 0-.929-.927h-3.715zM7.334 22.263c-.512 0-.929.39-.929.865v3.468c.001.476.417.865.929.865h7.04c.512 0 .929-.389.929-.865v-3.468c0-.476-.417-.865-.929-.865h-7.04zm.928 2.94v-.683c0-.478.418-.867.929-.867h3.327c.511 0 .929.39.929.867v.682c0 .476-.418.865-.929.865H9.191c-.511 0-.929-.389-.929-.865z" fill="url(#d)"/></g></svg>