<svg width="32" height="32" viewBox="0 0 32 32" xmlns="http://www.w3.org/2000/svg"><title>icon_entertainment</title><defs><linearGradient x1="50%" y1="0%" x2="50%" y2="100%" id="a"><stop stop-color="#D24361" offset="0%"/><stop stop-color="#880B22" offset="100%"/></linearGradient><linearGradient x1="50%" y1="0%" x2="50%" y2="155.856%" id="b"><stop stop-color="#D24361" offset="0%"/><stop stop-color="#880B22" offset="100%"/></linearGradient></defs><g fill="none" fill-rule="evenodd"><path d="M16 29.765c7.602 0 13.765-6.163 13.765-13.765S23.602 2.235 16 2.235 2.235 8.398 2.235 16 8.398 29.765 16 29.765zM16 32C7.163 32 0 24.837 0 16S7.163 0 16 0s16 7.163 16 16-7.163 16-16 16z" fill="url(#a)" fill-rule="nonzero"/><g transform="translate(9 6)" fill="url(#b)"><path d="M6.026 13.067c-1.522 0-2.76-1.095-2.76-2.44V2.44C3.267 1.095 4.505 0 6.027 0h1.948c1.522 0 2.76 1.095 2.76 2.44v1.293c0 .396-.364.717-.812.717h-1.48c-.446-.006-.805-.332-.798-.728.006-.389.37-.706.817-.706h.65V2.44c0-.564-.5-1.006-1.137-1.006H6.026c-.638 0-1.137.442-1.137 1.006v.576h.668c.447.005.806.331.8.727-.007.39-.37.707-.818.707h-.65v1.366h.668c.447.005.806.332.8.727-.007.39-.37.707-.818.707h-.65v1.366h.668c.217.003.42.08.57.218a.673.673 0 0 1 .23.51c-.007.39-.37.707-.818.707h-.65v.575c0 .564.5 1.006 1.137 1.006h1.948c.638 0 1.137-.442 1.137-1.006v-.575h-.673c-.434 0-.79-.3-.81-.684a.669.669 0 0 1 .21-.517.852.852 0 0 1 .562-.233H9.111V7.25h-.673c-.434 0-.79-.3-.81-.683a.67.67 0 0 1 .21-.517.852.852 0 0 1 .562-.233H9.111V5.44c.007-.39.37-.707.823-.707.217.003.419.08.57.217a.67.67 0 0 1 .23.506v5.17c0 1.346-1.238 2.44-2.76 2.44H6.026z"/><path d="M6.815 16.527h.37v-1.118h-.37v1.118zM14 6.969c.003-.182-.09-.358-.26-.491a1.076 1.076 0 0 0-.647-.211c-.513 0-.927.308-.933.686v4.202c0 1.604-1.66 2.86-3.779 2.86H5.618c-2.118 0-3.778-1.256-3.778-2.86V6.969c.002-.383-.41-.696-.917-.697-.027 0-.05 0-.074.002-.478.028-.85.334-.849.696v4.185c0 2.17 2.158 3.975 4.974 4.218v1.154H2.232c-.494.035-.852.334-.85.697v1.674c-.004.182.089.358.26.491.171.134.401.209.647.211.513 0 1.957-.009 2.203-.006h7.206c.507 0 .92-.312.92-.696v-1.674c0-.385-.413-.697-.92-.697H9.026v-1.154C11.84 15.13 14 13.326 14 11.155V6.969z"/></g></g></svg>