<svg width="32" height="32" viewBox="0 0 32 32" xmlns="http://www.w3.org/2000/svg"><title>icon_Gluten_Free</title><defs><linearGradient x1="50%" y1="0%" x2="50%" y2="100%" id="a"><stop stop-color="#D24361" offset="0%"/><stop stop-color="#880B22" offset="100%"/></linearGradient><linearGradient x1="50%" y1="0%" x2="50%" y2="143.867%" id="b"><stop stop-color="#D24361" offset="0%"/><stop stop-color="#880B22" offset="100%"/></linearGradient></defs><g fill-rule="nonzero" fill="none"><path d="M16 29.765c7.602 0 13.765-6.163 13.765-13.765S23.602 2.235 16 2.235 2.235 8.398 2.235 16 8.398 29.765 16 29.765zM16 32C7.163 32 0 24.837 0 16S7.163 0 16 0s16 7.163 16 16-7.163 16-16 16z" fill="url(#a)"/><path d="M16 19.476c1.673-.012 3.03-1.333 3.03-2.976 0-1.655-1.357-2.976-3.03-2.976-1.673 0-3.03 1.321-3.03 2.976 0 1.643 1.357 2.964 3.03 2.976zm3.527-7.512A5.756 5.756 0 0 0 16 10.786a5.83 5.83 0 0 0-3.454 1.119v1.25A4.93 4.93 0 0 1 16 11.737c1.345 0 2.57.547 3.454 1.416v-.511c0-.226.025-.453.073-.679zm.873-1.583a3.32 3.32 0 0 1 2.327-.953c1.806 0 3.273 1.44 3.273 3.215v.952c0 1.464-.994 2.69-2.364 3.072v6a.908.908 0 0 1-.909.893.9.9 0 0 1-.909-.893v-1.322A7.653 7.653 0 0 1 16 24a7.683 7.683 0 0 1-5.818-2.643v1.31a.908.908 0 0 1-.91.893.9.9 0 0 1-.908-.893V16.5v-.06C6.994 16.06 6 14.833 6 13.357v-3.036a.9.9 0 0 1 .91-.893c.496 0 .908.405.908.893v3.036c0 .452.218.857.546 1.107v-4.143a.9.9 0 0 1 .909-.893c.497 0 .909.405.909.893v4.143c.327-.25.546-.655.546-1.107v-3.036a.9.9 0 0 1 .909-.893.9.9 0 0 1 .787.453A7.664 7.664 0 0 1 16 9c1.636 0 3.152.512 4.4 1.38zm.436 5.821c.012.096.012.203.012.298 0 2.62-2.17 4.75-4.848 4.762-2.679-.012-4.848-2.143-4.848-4.762 0-.179.012-.357.036-.536-.303.214-.642.38-1.006.476v.06c0 1.571.642 3 1.697 4.036A5.883 5.883 0 0 0 16 22.214a5.832 5.832 0 0 0 4.11-1.678 5.615 5.615 0 0 0 1.696-3.858 3.183 3.183 0 0 1-.97-.476zm1.855-1.178h.036c.8-.012 1.455-.643 1.455-1.429v-.952c0-.786-.655-1.429-1.455-1.429-.557 0-1.042.31-1.297.774-.012.036-.036.06-.048.095-.073.179-.11.357-.11.56v.952c0 .774.63 1.393 1.419 1.429z" fill="url(#b)"/></g></svg>