<svg id="Layer_1" xmlns="http://www.w3.org/2000/svg" viewBox="-299 391 12 12"><style>.st0{fill:#00d34d}</style><title>Combined Shape@2x</title><g id="Outside-v.2"><g id="Store-Single-Page-WP" transform="translate(-1193 -35)"><g id="Header" transform="translate(150 24)"><g id="Register" transform="translate(1021)"><g id="user" transform="translate(20 9)"><path id="Combined-Shape" class="st0" d="M-291 393c2 0 3.7 1.6 3.7 3.7 0 1.1-.5 2.1-1.3 2.8 2.1.8 3.6 2.7 3.6 4.9 0 .4-.3.7-.7.7h-10.6c-.4 0-.7-.3-.7-.7 0-2.2 1.5-4.1 3.6-4.9-.8-.7-1.3-1.7-1.3-2.8 0-2.1 1.7-3.7 3.7-3.7zm0 1.3c-1.3 0-2.3 1-2.3 2.3s1 2.3 2.3 2.3 2.3-1 2.3-2.3-1-2.3-2.3-2.3zm0 6c-2.4 0-4.2 1.5-4.6 3.3h9.2c-.4-1.8-2.2-3.3-4.6-3.3z"/></g></g></g></g></g></svg>