<svg width="12" height="12" viewBox="0 0 12 12" xmlns="http://www.w3.org/2000/svg"><title>Combined Shape@2x</title><path d="M6 0a3.677 3.677 0 0 1 3.667 3.667c0 1.11-.496 2.107-1.282 2.78C10.492 7.264 12 9.118 12 11.334a.667.667 0 0 1-.667.667H.667A.667.667 0 0 1 0 11.333c0-2.215 1.508-4.07 3.615-4.885a3.654 3.654 0 0 1-1.282-2.781A3.677 3.677 0 0 1 6 0zm0 1.333a2.323 2.323 0 0 0-2.333 2.334A2.323 2.323 0 0 0 6 6a2.323 2.323 0 0 0 2.333-2.333A2.323 2.323 0 0 0 6 1.333zm0 6c-2.357 0-4.229 1.469-4.594 3.334h9.188C10.229 8.802 8.357 7.333 6 7.333z" fill="#FFF" fill-rule="evenodd"/></svg>