<svg width="30" height="22" viewBox="0 0 30 22" xmlns="http://www.w3.org/2000/svg" xmlns:xlink="http://www.w3.org/1999/xlink"><title>Icons</title><defs><path id="a" d="M0 .059h26.75v18.945H0V.059z"/></defs><g fill="none" fill-rule="evenodd"><path d="M27.08 3.13H6.01c-1.61 0-2.92 1.326-2.92 2.957v.802H30v-.802c0-1.63-1.31-2.957-2.92-2.957zM6.368 19h6.965v-.963H6.369v.962zm0-2.565h3.483v-.962H6.369v.962zm15.415 2.564h4.937v-3.526h-4.937v3.526zm-18.694.043C3.09 20.673 4.4 22 6.01 22h21.07c1.61 0 2.92-1.327 2.92-2.958V9.734H3.09v9.308zM6.01 2.098h20.773C26.418.885 25.304 0 23.99 0H2.921C1.31 0 0 1.327 0 2.958v12.955c0 1.332.874 2.46 2.071 2.83V6.086c0-2.2 1.767-3.99 3.94-3.99z" fill="#81DAF6"/><g transform="translate(0 .043)"><mask id="b" fill="#fff"><use xlink:href="#a"/></mask><path d="M6.003 2.18H26.75C26.386.953 25.273.058 23.96.058H2.917C1.31.059 0 1.4 0 3.049v13.095c0 1.346.873 2.486 2.069 2.86V6.21c0-2.223 1.765-4.032 3.934-4.032" fill="#3BC5F1" mask="url(#b)"/></g></g></svg>