<svg width="16" height="16" viewBox="0 0 16 16" xmlns="http://www.w3.org/2000/svg"><title>Combined Shape</title><path d="M15.739 14.48l-3.283-3.277a6.994 6.994 0 0 0 .622-.946 6.917 6.917 0 0 0 .84-3.31C13.918 3.11 10.803 0 6.96 0A7.026 7.026 0 0 0 5.9.08a6.92 6.92 0 0 0-3.366 1.506 7.05 7.05 0 0 0-.944.942A6.909 6.909 0 0 0 .01 7.304a6.904 6.904 0 0 0 .998 3.244 6.987 6.987 0 0 0 3.243 2.798 6.922 6.922 0 0 0 2.709.546 6.936 6.936 0 0 0 4.232-1.433l3.286 3.28a.89.89 0 0 0 1.261 0 .889.889 0 0 0 0-1.26zM1.428 6.946c0-3.044 2.481-5.521 5.531-5.521s5.532 2.477 5.532 5.521c0 3.045-2.482 5.522-5.532 5.522S1.428 9.99 1.428 6.946zm8.03-.712H7.672V4.453a.713.713 0 0 0-1.427 0v1.78H4.46a.713.713 0 1 0 0 1.426h1.785v1.78a.713.713 0 0 0 1.427 0V7.66h1.784a.713.713 0 1 0 0-1.425z" fill-rule="nonzero" fill="#07B45D"/></svg>