<svg width="32" height="32" viewBox="0 0 32 32" xmlns="http://www.w3.org/2000/svg"><title>icon_supermarkets</title><defs><linearGradient x1="50%" y1="0%" x2="50%" y2="100%" id="a"><stop stop-color="#D24361" offset="0%"/><stop stop-color="#880B22" offset="100%"/></linearGradient><linearGradient x1="50%" y1="-145.337%" x2="50%" y2="153.996%" id="b"><stop stop-color="#D24361" offset="0%"/><stop stop-color="#880B22" offset="100%"/></linearGradient><linearGradient x1="50%" y1="-23.679%" x2="50%" y2="124.814%" id="c"><stop stop-color="#D24361" offset="0%"/><stop stop-color="#880B22" offset="100%"/></linearGradient></defs><g fill="none" fill-rule="evenodd"><path d="M16 29.765c7.602 0 13.765-6.163 13.765-13.765S23.602 2.235 16 2.235 2.235 8.398 2.235 16 8.398 29.765 16 29.765zM16 32C7.163 32 0 24.837 0 16S7.163 0 16 0s16 7.163 16 16-7.163 16-16 16z" fill="url(#a)" fill-rule="nonzero"/><path d="M9.558 10c-.796 0-1.443.64-1.443 1.425 0 .624.421 1.177 1.017 1.36-.068 1.446-.531 2.013-1.63 2.013-1.102 0-1.566-.566-1.633-2.013a1.435 1.435 0 0 0 1.017-1.36c0-.785-.647-1.425-1.443-1.425C4.648 10 4 10.64 4 11.425c0 .478.24.913.645 1.18C4.685 14.857 5.646 16 7.501 16c1.854 0 2.815-1.143 2.855-3.395.404-.267.644-.702.644-1.18C11 10.64 10.353 10 9.558 10" fill="url(#b)" transform="translate(8 6)"/><path d="M1.66 17.839L2.692 8.21h6.123a.792.792 0 0 0 .787-.795.792.792 0 0 0-.787-.796H7.74c.246-.616.67-2.054.802-2.502l.883-.012a.767.767 0 0 0 .32-.071l.036.14c.351 1.331.565 2.1.877 2.467l.01.012a.795.795 0 0 0-.56.762c0 .438.353.795.786.795h1.424l1.236 9.628H1.661zm2.534-16.15c.487 0 1.599 1.065 2.456 3.35-.206.697-.293.886-.327.937-.13.196-.249.412-.352.644H4.636l.73-.625a.793.793 0 0 0 .274-.54.793.793 0 0 0-.184-.58.776.776 0 0 0-.603-.274.775.775 0 0 0-.505.182l-.885.758a4.706 4.706 0 0 1-.012-.114L4.799 4.3a.794.794 0 0 0 .275-.541.782.782 0 0 0-.788-.854.769.769 0 0 0-.5.178l-.345.281c.118-1.011.424-1.6.753-1.676zm5.034-.099c.213 0 .579.034.646.223.001.031-.01.148-.107.565l-.044.202a.796.796 0 0 0-.312-.063l-.825.01a8.184 8.184 0 0 0-.074-.247 4.974 4.974 0 0 1-.119-.423c.134-.196.524-.267.835-.267zm4.56 5.724a.79.79 0 0 0-.778-.694h-.526a4.119 4.119 0 0 0-.622-1.001c-.109-.15-.42-1.318-.563-1.854l-.11-.415c-.01-.089.077-.471.11-.618.107-.461.216-.938.08-1.355C11.095.5 10.312 0 9.227 0 8.672 0 7.33.134 6.882 1.378a1.295 1.295 0 0 0-.064.536C6.001.747 5.076.098 4.192.098c-.156 0-.31.02-.46.059C2.081.585 1.407 3.17 2.03 6.62h-.046c-.4 0-.734.304-.78.709l-1.2 11.217a.808.808 0 0 0 .199.62.786.786 0 0 0 .583.262H14.45a.794.794 0 0 0 .78-.897L13.788 7.314z" fill="url(#c)" transform="translate(8 6)"/></g></svg>