<svg width="20" height="12" viewBox="0 0 20 12" xmlns="http://www.w3.org/2000/svg"><title>Combined Shape</title><path d="M6.583 5.177a544.9 544.9 0 0 1 5.639.006c.112 1.554-.096 3.209-1.065 4.494-1.467 2.035-4.413 2.63-6.712 1.758C2.14 10.569.505 8.167.7 5.718.75 2.723 3.544.1 6.583.2c1.456-.067 2.825.558 3.94 1.435a20.83 20.83 0 0 1-1.495 1.527c-1.34-.913-3.248-1.174-4.588-.119-1.918 1.308-2.006 4.395-.16 5.802 1.793 1.605 5.184.808 5.68-1.649-1.124-.016-2.25 0-3.374-.036-.003-.66-.006-1.321-.003-1.982zm11.405-1.5c.003.552.006 1.108.011 1.66.56.006 1.124.006 1.685.011V7c-.56.006-1.121.008-1.685.014-.005.555-.008 1.108-.01 1.66h-1.68c-.005-.552-.005-1.105-.01-1.657L14.613 7V5.348c.56-.005 1.12-.008 1.684-.011.003-.555.009-1.108.014-1.66h1.676z" fill="#BBE6FB" fill-rule="evenodd"/></svg>