<svg width="70" height="80" xmlns="http://www.w3.org/2000/svg"><defs><linearGradient x1="50%" y1="0%" x2="50%" y2="100%" id="a"><stop stop-color="#D24361" offset="0%"/><stop stop-color="#880B22" offset="100%"/></linearGradient></defs><g fill="none" fill-rule="evenodd"><path d="M-13-8h96v96h-96z"/><g fill="url(#a)"><path d="M26.555 18.67a91.244 91.244 0 0 1 8.316 3.914 108.138 108.138 0 0 1 8.729-4.019C41.175 8.41 37.593 3.852 35.064 3.852c-1.374 0-2.992 1.427-4.488 3.942.457.648.688 1.379.688 2.182 0 1.917-1.384 3.464-3.263 3.788-.497 1.47-.952 3.064-1.446 4.907m-.714 4.143a103.6 103.6 0 0 0-.767 5.753c.678-.44 1.34-.83 2.016-1.19a65.494 65.494 0 0 1 3.706-2.269 66.876 66.876 0 0 0-4.955-2.294m13.278 2.232c1.233.73 2.5 1.495 3.767 2.26.823.521 1.653 1.05 2.484 1.597-.243-2.381-.524-4.434-.86-6.292a84.61 84.61 0 0 0-5.391 2.435M9.464 18.568c-2.504 0-4.347.626-5.058 1.719-1.462 2.27.94 8.366 9.574 16.495 2.142-1.868 4.476-3.637 6.72-5.303.288-3.674.73-7.1 1.322-10.206-4.88-1.771-9.206-2.705-12.558-2.705M49.53 31.873c2.508 1.847 4.546 3.462 6.322 5.011 8.74-8.135 11.16-14.283 9.669-16.601-.864-1.421-3.226-1.715-5.057-1.715-1.843 0-4.217.356-7.057 1.057-1.442.374-3.297.882-5.204 1.557.59 3.197 1.037 6.788 1.327 10.69m.335 5.442c.024.776.048 1.552.097 2.329 0 .783.002 1.563-.011 2.328a95.888 95.888 0 0 0 2.969-2.444c-.991-.803-2.012-1.61-3.063-2.438l.008.225M16.98 39.536c1.084.95 2.263 1.88 3.5 2.832-.016-.858-.016-1.726-.016-2.664 0-1.037 0-2.041.02-3.034a202.014 202.014 0 0 0-3.504 2.866m7.76 5.876a60.459 60.459 0 0 0 4.546 3.029c.644.376 1.292.76 1.93 1.138 1.343.795 2.62 1.55 3.86 2.237a67.153 67.153 0 0 0 5.734-3.353 128.085 128.085 0 0 0 5.057-3.348c.006-.77.027-1.555.046-2.35.026-.978.05-1.97.05-2.962 0-1.995-.085-4.003-.173-5.778-.534-.355-1.07-.718-1.607-1.083-1.12-.76-2.276-1.546-3.453-2.279-.627-.366-1.271-.748-1.906-1.123a153.77 153.77 0 0 0-3.871-2.243c-1.92 1.02-3.871 2.213-5.762 3.37a67.308 67.308 0 0 0-4.45 2.94c-.093 1.948-.177 4.01-.177 6.097 0 1.927.078 3.741.176 5.708m.222 4.967c.217 2.06.476 4.014.783 5.913a89.165 89.165 0 0 0 5.01-2.312 69.638 69.638 0 0 1-3.745-2.294 61.745 61.745 0 0 1-2.048-1.307m14.157 3.605c1.814.918 3.59 1.7 5.459 2.49.308-1.986.576-4.117.798-6.368-.823.542-1.641 1.063-2.444 1.572-1.297.854-2.572 1.595-3.813 2.306m9.082 3.841c4.8 1.692 8.999 2.583 12.176 2.583 2.582 0 4.326-.583 5.047-1.684 1.01-1.612.088-4.766-2.475-8.499a2.665 2.665 0 0 1-.485.047c-2.15 0-3.9-1.728-3.9-3.852 0-.36.027-.83.194-1.31a156.22 156.22 0 0 0-3.03-3.057 88.003 88.003 0 0 1-6.198 4.991c-.288 3.87-.735 7.49-1.33 10.781M6.89 50.31c-2.57 3.739-3.496 6.9-2.476 8.528.669 1.077 2.479 1.67 5.098 1.67 3.28 0 7.558-.892 12.413-2.585-.518-2.844-.902-6.073-1.224-10.28a84.29 84.29 0 0 1-6.74-5.328c-1.022.93-1.962 1.909-2.778 2.777.18.444.28.94.28 1.427 0 2.123-1.748 3.852-3.9 3.852a4.04 4.04 0 0 1-.673-.06m19.628 9.956c2.32 10.498 6.078 15.289 8.646 15.289 2.586 0 6.222-4.679 8.64-15.106a99.275 99.275 0 0 1-8.84-4.118 84.387 84.387 0 0 1-8.446 3.935m8.646 19.24c-5.262 0-9.764-6.523-12.43-17.95-5.2 1.82-9.661 2.74-13.27 2.74-4.18 0-7.023-1.155-8.45-3.432-1.92-3.055-.896-7.704 2.88-13.132a3.562 3.562 0 0 1-.23-1.313c0-2.124 1.75-3.852 3.9-3.852.158 0 .332 0 .519.015a52.706 52.706 0 0 1 3.026-3.078c-9.342-8.85-13.11-16.838-10.085-21.472C2.49 15.782 5.417 14.59 9.49 14.59c3.664 0 8.292.952 13.44 2.76a52.007 52.007 0 0 1 1.39-4.952 3.863 3.863 0 0 1-.857-2.423c0-2.03 1.598-3.698 3.617-3.842C29.519 2.064 32.237 0 35.164 0c5.124 0 9.55 6.234 12.217 17.156a62.238 62.238 0 0 1 5.028-1.518c2.985-.71 5.643-1.066 7.92-1.066 4.164 0 7.048 1.162 8.572 3.454 2.98 4.627-.79 12.578-10.085 21.385a87.375 87.375 0 0 1 3.064 3.129c.202-.042.429-.07.685-.07 2.15 0 3.899 1.727 3.899 3.851 0 .598-.153 1.105-.336 1.513 3.75 5.528 4.676 10.034 2.673 13.053-1.468 2.23-4.386 3.41-8.436 3.41-3.563 0-7.994-.88-12.873-2.548-2.657 11.304-7.123 17.757-12.328 17.757"/><path d="M35.164 37.235c-1.482 0-2.6 1.061-2.6 2.469 0 1.44 1.142 2.568 2.6 2.568 1.482 0 2.6-1.062 2.6-2.47 0-1.44-1.142-2.567-2.6-2.567m0 8.987c-3.639 0-6.6-2.924-6.6-6.518s2.961-6.519 6.6-6.519c3.64 0 6.6 2.925 6.6 6.519 0 3.594-2.96 6.518-6.6 6.518"/></g></g></svg>