<svg width="39" height="44" viewBox="0 0 39 44" xmlns="http://www.w3.org/2000/svg"><title>Logotype</title><g fill="none" fill-rule="evenodd"><path d="M39 30.974c0 1.282-.954 2.856-2.06 3.498l-15.52 8.996c-1.105.642-2.926.642-4.031 0L1.952 34.472C.846 33.83 0 32.256 0 30.974V12.975c0-1.282.84-2.856 1.946-3.498L17.408.481c1.106-.641 2.899-.641 4.004 0l15.537 8.996C38.054 10.12 39 11.693 39 12.975v18z" fill="#2FA9E0"/><path d="M17.408.48L1.946 9.478C.84 10.12 0 11.693 0 12.975v18c0 1.281.847 2.855 1.952 3.497l15.437 8.996c1.105.642 2.926.642 4.032 0l6.287-3.644 8.324-17.88L22.215.924l-.803-.443c-1.106-.641-2.898-.641-4.004 0" fill="#3DBFEF"/><path d="M23.887 22.223l-.55-2.413L11.739 3.783l-9.793 5.7C.84 10.122 0 11.697 0 12.98v17.998c0 1.283.846 2.857 1.952 3.499l13.04 7.599 8.895-19.853z" fill="#6DCFF5"/><path d="M30.458 18.502c-3.522.261-7.002.823-14.839 1.353l-11.327.716c.178.752.313 1.38.462 1.657.613 1.144 2.686 1.707 5.954 1.71 1.004.002 3.241-.013 6.664-.012L15.074 36.57h2.439l5.647-12.644c5.763 0 7.186.007 7.369 0 2.426-.075 5.579-.622 5.503-2.174-.11-2.26-2.393-3.518-5.574-3.25M4.454 14.908L2.818 14.9s.543 2.181 1.074 4.25l4.772-.314-4.21-3.93zM21.804 17.793l-3.386-4.71h-1.955l.676 5.126z" fill="#FEFEFE"/></g></svg>