<svg width="151" height="22" viewBox="0 0 151 22" xmlns="http://www.w3.org/2000/svg"><title>Page 1</title><g fill="none" fill-rule="evenodd"><path d="M145.73 5.033c-3.328.245-6.618.773-14.025 1.271L121 6.976c.168.707.295 1.295.436 1.556.58 1.074 2.539 1.603 5.628 1.606.948.002 3.064-.012 6.298-.012L131.19 22h2.305l5.337-11.873c5.448 0 6.793.006 6.965 0 2.293-.07 5.273-.584 5.202-2.041-.105-2.123-2.262-3.303-5.27-3.053M120.4 2.006L119 2s.465 2.052.92 4l4.08-.295-3.6-3.699zM96 22h2.278l.678-2.765h3.013c2.163 0 4.348-1.338 4.898-3.588.612-2.5-.965-3.647-3.13-3.647h-5.29L96 22zm6.94-8.206c1.124 0 1.86.646 1.568 1.837-.272 1.118-1.337 1.81-2.46 1.81h-2.654l.891-3.647h2.655zM97 12h-2.505l-3.681 3.66L88.87 12h-2.438l5.678 10h2.537l.037-.16-2.654-4.825 4.937-4.87L97 12zm-8.82 5.761l-4.144 4.079L84 22h2.536l1.771-1.774c.507-.506.602-1.23.243-1.838l-.37-.627zM82.6 22l.434-1.808h-6.459l.579-2.412h5.292l.434-1.81h-5.29l.518-2.161h6.459L85 12h-8.6L74 22zM115.599 22l.434-1.808h-6.458l.579-2.412h5.292l.434-1.81h-5.29l.517-2.161h6.46L118 12h-8.6L107 22z" fill="#FEFEFE"/><path d="M62 22h4.82c3.306 0 6.21-1.764 7.005-4.984.802-3.25-1.231-5.001-4.535-5.016h-4.82L62 22zm6.747-8.205c2.055 0 3.208 1.133 2.692 3.22-.509 2.06-2.218 3.191-4.276 3.191h-2.416l1.581-6.411h2.42zM38 22h2.24l1.308-2h4.868l.347 2H49l-1.778-10H44.64L38 22zm7.446-7.955l.78 4.426h-3.75l2.97-4.426zM31.943 22h2.401L41 12h-2.418l-4.842 7.353L32.61 12h-2.402c.559 3.339 1.113 6.672 1.735 10zm-2.254-5.168l-1.97 2.859L26.386 12H24l1.781 10h2.402l1.451-2.1c.376-.542.491-1.13.35-1.76l-.295-1.308zM20.599 22l.435-1.808h-6.458l.578-2.412h5.291l.434-1.81h-5.29l.518-2.161h6.457L23 12h-8.6L12 22zM0 21.893h2.254l.634-2.592.237-.973.393-1.6.721-2.953h2.802c1.03 0 1.648.51 1.41 1.484-.225.916-1.102 1.469-2.131 1.469H3.518c1.177 2.431 3.374 6.152 6.884 5.084L11 20.046c-.39.144-.91.231-1.28.231-1.143 0-1.941-1.089-2.75-1.994 1.817-.245 3.44-1.424 3.842-3.07C11.406 12.786 9.392 12 7.234 12H2.419L0 21.893zM50 21.893h2.254l.635-2.592.237-.973.391-1.6.722-2.953h2.804c1.03 0 1.647.51 1.408 1.484-.223.916-1.1 1.469-2.13 1.469h-2.804c1.178 2.431 3.376 6.152 6.886 5.084L61 20.046c-.39.144-.91.231-1.28.231-1.144 0-1.94-1.089-2.75-1.994 1.815-.245 3.44-1.424 3.843-3.07.594-2.428-1.42-3.213-3.579-3.213H52.42L50 21.893z" fill="#93D9F8"/><path d="M118 21.893h2.253l.634-2.592.24-.973.39-1.6.721-2.953h2.803c1.03 0 1.648.51 1.41 1.484-.226.916-1.102 1.469-2.133 1.469h-2.8c1.174 2.431 3.372 6.152 6.882 5.084l.6-1.766c-.39.144-.91.231-1.282.231-1.143 0-1.94-1.089-2.75-1.994 1.817-.245 3.44-1.424 3.843-3.07.594-2.428-1.42-3.213-3.578-3.213h-4.815L118 21.893z" fill="#FEFEFE"/><path fill="#93D9F8" d="M137 4.594L133.831 0H132l.633 5z"/></g></svg>