<svg width="14" height="11" viewBox="0 0 14 11" xmlns="http://www.w3.org/2000/svg"><title>Shape</title><path d="M12.35 1.74A2.8 2.8 0 0 0 13.613.202a5.87 5.87 0 0 1-1.824.674A2.915 2.915 0 0 0 9.693 0C8.107 0 6.82 1.243 6.82 2.777c0 .217.025.43.074.633A8.251 8.251 0 0 1 .975.508c-.247.41-.389.887-.389 1.397 0 .963.507 1.813 1.278 2.311a2.94 2.94 0 0 1-1.301-.348v.036c0 1.345.99 2.467 2.304 2.723a2.98 2.98 0 0 1-1.298.047c.366 1.103 1.427 1.906 2.683 1.928a5.889 5.889 0 0 1-3.567 1.19c-.231 0-.46-.014-.685-.04A8.332 8.332 0 0 0 4.403 11c5.283 0 8.172-4.231 8.172-7.901 0-.12-.002-.24-.008-.36A5.714 5.714 0 0 0 14 1.302a5.869 5.869 0 0 1-1.65.437z" fill="#46ADE9" fill-rule="evenodd"/></svg>