<svg width="20" height="20" viewBox="0 0 20 20" xmlns="http://www.w3.org/2000/svg"><title>Fill 3</title><path d="M14.815 14.454H5.642c-.34-.013-.561-.08-.642-.321.013-.29.03-1.964.03-2.143 0-.313.915-.586 1.564-.793.649-.206 1.256-.44 1.564-.506.308-.067.433-.207.541-.452a.351.351 0 0 1 .137-.165c-.018-.187-.106-.334-.227-.493-.143-.187-.523-.957-.666-2.488-.143-1.528.459-3.083 2.09-3.09V4h.014c.037 0 .269-.002.355 0h.017v.001c1.627.01 2.228 1.564 2.086 3.091-.144 1.53-.524 2.301-.666 2.488-.12.157-.207.303-.227.488.053.032.106.08.145.17.108.245.233.385.541.452.308.067.916.3 1.564.506.65.207 1.565.48 1.565.793 0 .18.016 1.857.03 2.145-.082.24-.302.306-.642.32zM10.001 0C4.477 0 0 4.477 0 10s4.477 10 10 10c5.524 0 10-4.477 10-10S15.524 0 10 0z" fill="#FFF" fill-rule="evenodd"/></svg>