<svg width="20" height="17" viewBox="0 0 20 17" xmlns="http://www.w3.org/2000/svg"><title>Shape Copy 3</title><path d="M19.024 8.916a.82.82 0 0 0 .002-1.203l-.42-.39a.778.778 0 0 0-.488-.21l-5.845-.524L6.967.33a.743.743 0 0 0-.573-.265L5.247.067 7.63 6.874l-4.517.271-1.719-1.55a.318.318 0 0 0-.265-.097H.68l.962 2.838-.969 2.84h.448a.349.349 0 0 0 .266-.099L3.11 9.495l4.558.274-2.386 6.827 1.147-.001a.747.747 0 0 0 .574-.267l5.322-6.271 5.846-.539c.14-.028.293-.098.433-.21l.42-.392z" fill="#0091D9" fill-rule="evenodd"/></svg>