<svg width="47" height="49" viewBox="0 0 47 49" xmlns="http://www.w3.org/2000/svg"><title>Combined Shape</title><path d="M40.053 15.378c5.829 2.755 7.892 10.76 4.606 17.88-3.135 6.796-10.006 10.325-15.694 8.24l.182 2.833-1.458-.69a2.313 2.313 0 0 0-.815 1.414c-.102.58.006 1.162.303 1.64.9 1.441.547 3.463-.788 4.506l-.898.701a.43.43 0 0 1-.644-.115.555.555 0 0 1 .125-.717l.898-.7c.911-.712 1.152-2.091.538-3.076a3.406 3.406 0 0 1-.445-2.403 3.457 3.457 0 0 1 .794-1.688l-1.193-.565 2.193-1.674c-.116-.062-.231-.125-.344-.19-1.93-1.125-3.386-2.865-4.302-4.952 5.155-2.944 8.729-9.328 8.729-16.738 0-1.288-.109-2.543-.313-3.756 2.802-1.15 5.83-1.224 8.526.05zm-9.238 2.972c0 7.358-3.639 13.698-8.89 16.622a13.425 13.425 0 0 1-5.362 1.672l1.784 3.21h-2.129a2.934 2.934 0 0 0-.195 2.1c.199.734.65 1.355 1.27 1.748 1.876 1.189 2.57 3.746 1.547 5.702l-.689 1.316a.576.576 0 0 1-.835.22.704.704 0 0 1-.246-.906l.688-1.316c.698-1.333.225-3.078-1.055-3.89a4.355 4.355 0 0 1-1.863-2.561 4.38 4.38 0 0 1 .02-2.413h-1.743l1.701-3.167a12.472 12.472 0 0 1-.516-.033C6.309 35.979 0 28.042 0 18.35 0 8.216 6.898 0 15.407 0c7.437 0 13.642 6.275 15.089 14.62.209 1.205.319 2.452.319 3.73zM13 4.815l-1.637 3.17-3.66.508 2.649 2.468-.625 3.483L13 12.8l3.273 1.644-.625-3.483 2.648-2.468-3.66-.508L13 4.815zm7.704 11.555l-1.637 3.487-3.66.559 2.648 2.714-.624 3.833 3.273-1.81 3.273 1.81-.625-3.833L26 20.416l-3.66-.56-1.636-3.486zM10.11 26l-.744 1.585-1.663.254 1.203 1.234-.284 1.742 1.488-.823 1.488.823-.284-1.742 1.204-1.234-1.664-.254L10.11 26zm27.926-5.778l-1.636 3.487-3.66.56 2.648 2.713-.625 3.833 3.273-1.81 3.273 1.81-.624-3.833 2.647-2.714-3.66-.559-1.636-3.487zm-5.778 13.482l-.744 1.585-1.663.254 1.203 1.234-.284 1.742 1.488-.822 1.488.822-.285-1.742 1.205-1.234-1.664-.254-.744-1.585z" fill="#FFF" fill-rule="evenodd"/></svg>