<svg width="32" height="32" xmlns="http://www.w3.org/2000/svg" xmlns:xlink="http://www.w3.org/1999/xlink"><defs><linearGradient x1="50%" y1="0%" x2="50%" y2="100%" id="b"><stop stop-color="#FFF" stop-opacity=".5" offset="0%"/><stop stop-opacity=".5" offset="100%"/></linearGradient><circle id="a" cx="16" cy="16" r="16"/></defs><g fill="none" fill-rule="evenodd"><use fill="#1667D3" xlink:href="#a"/><use fill="url(#b)" style="mix-blend-mode:soft-light" xlink:href="#a"/><path d="M19.385 22.193l-.241.957a47.6 47.6 0 0 1-1.729.633c-.43.145-.93.217-1.498.217-.875 0-1.555-.208-2.04-.621a1.986 1.986 0 0 1-.728-1.58c0-.246.018-.5.055-.76.037-.258.095-.55.175-.877l.903-3.103c.08-.297.149-.58.203-.846a3.57 3.57 0 0 0 .082-.727c0-.396-.084-.673-.252-.83-.169-.155-.49-.234-.966-.234-.233 0-.473.036-.717.107-.246.07-.456.138-.632.202l.242-.957a23.14 23.14 0 0 1 1.696-.6 5.219 5.219 0 0 1 1.535-.25c.868 0 1.539.203 2.009.61.47.409.706.938.706 1.59 0 .135-.016.373-.049.712-.033.34-.093.652-.181.936l-.899 3.092c-.073.248-.14.532-.197.852a4.21 4.21 0 0 0-.088.722c0 .41.094.69.283.84.19.15.518.223.983.223.219 0 .467-.037.744-.111.276-.075.477-.14.6-.197zM20 9.85c0 .51-.24.945-.72 1.303-.48.36-1.058.54-1.734.54-.678 0-1.257-.18-1.742-.54-.484-.358-.727-.793-.727-1.303 0-.509.243-.945.727-1.307C16.288 8.18 16.868 8 17.546 8c.676 0 1.254.181 1.734.543.48.362.72.798.72 1.307z" fill="#FFF"/></g></svg>