<?xml version="1.0" encoding="UTF-8"?>
<svg width="20px" height="20px" viewBox="0 0 20 20" version="1.1" xmlns="http://www.w3.org/2000/svg" xmlns:xlink="http://www.w3.org/1999/xlink">
    <!-- Generator: Sketch 42 (36781) - http://www.bohemiancoding.com/sketch -->
    <title>Fill 3</title>
    <desc>Created with Sketch.</desc>
    <defs></defs>
    <g id="Page-1" stroke="none" stroke-width="1" fill="none" fill-rule="evenodd">
        <g id="Travel_with_Pets_1440" transform="translate(-157.000000, -606.000000)" fill="#FFFFFF">
            <g id="Header" transform="translate(110.000000, 92.000000)">
                <g id="Cabi_Logan" transform="translate(45.000000, 512.000000)">
                    <g id="Icons_user">
                        <path d="M16.8153616,16.4541175 L7.64200987,16.4541175 C7.30229164,16.440683 7.0806111,16.37447 7,16.1326488 C7.01343518,15.8438068 7.02974934,14.1692909 7.02974934,13.9898443 C7.02974934,13.6770121 7.94526116,13.4044834 8.59398862,13.1972081 C9.24271608,12.9908924 9.85017833,12.7577076 10.1582279,12.6914947 C10.4662775,12.6243221 10.5910328,12.4842194 10.6994739,12.2385597 C10.7359408,12.1531546 10.7858429,12.1061338 10.835745,12.0735072 C10.8175116,11.8873432 10.7301829,11.7395636 10.6092662,11.5812283 C10.4662775,11.3941047 10.0862537,10.6235396 9.94326496,9.09296488 C9.80027621,7.56526902 10.4019805,6.00974453 12.0333957,6.00206767 L12.0324361,6.00110806 L12.0401133,6.00110806 C12.0420326,6.00110806 12.0429923,6.00014845 12.0449116,6.00014845 C12.0449116,6.00014845 12.0458713,6.00110806 12.0468309,6.00110806 C12.0842575,6.00014845 12.3155346,5.99918884 12.4019036,6.00110806 C12.4028633,6.00110806 12.4028633,6.00014845 12.4028633,6.00014845 C12.4047826,6.00014845 12.4057423,6.00110806 12.4067019,6.00110806 L12.4191774,6.00110806 L12.4182178,6.00206767 C14.0457944,6.01262336 14.6474987,7.56622863 14.5045099,9.09296488 C14.3605615,10.6235396 13.9814974,11.3941047 13.8385087,11.5812283 C13.7185517,11.7376444 13.6321826,11.8844644 13.6120299,12.0687091 C13.6648109,12.1013358 13.717592,12.1483566 13.7569379,12.2385597 C13.865379,12.4842194 13.9901343,12.6243221 14.2981839,12.6914947 C14.6062335,12.7577076 15.2136957,12.9908924 15.8624232,13.1972081 C16.5111506,13.4044834 17.4266625,13.6770121 17.4266625,13.9898443 C17.4266625,14.1692909 17.4429766,15.8466856 17.4564118,16.134568 C17.374841,16.3754296 17.1550798,16.440683 16.8153616,16.4541175 L16.8153616,16.4541175 Z M12.0005007,2 C6.47749236,2 2,6.47726818 2,12 C2,17.5227318 6.47749236,22 12.0005007,22 C17.5235091,22 22,17.5227318 22,12 C22,6.47726818 17.5235091,2 12.0005007,2 L12.0005007,2 Z" id="Fill-3"></path>
                    </g>
                </g>
            </g>
        </g>
    </g>
</svg>