<?xml version="1.0" encoding="UTF-8"?>
<svg width="6px" height="6px" viewBox="0 0 6 6" version="1.1" xmlns="http://www.w3.org/2000/svg" xmlns:xlink="http://www.w3.org/1999/xlink">
    <!-- Generator: Sketch 47.1 (45422) - http://www.bohemiancoding.com/sketch -->
    <title>Combined Shape</title>
    <desc>Created with Sketch.</desc>
    <defs>
        <linearGradient x1="100%" y1="50%" x2="3.90625%" y2="50%" id="linearGradient-1">
            <stop stop-color="#1B36CC" offset="0%"></stop>
            <stop stop-color="#2137B2" offset="100%"></stop>
        </linearGradient>
    </defs>
    <g id="Index" stroke="none" stroke-width="1" fill="none" fill-rule="evenodd">
        <g id="Safe_Cities_1440" transform="translate(-260.000000, -15214.000000)" fill="url(#linearGradient-1)">
            <g id="Methodology" transform="translate(155.000000, 14590.000000)">
                <g id="Crime-Rates" transform="translate(104.000000, 532.000000)">
                    <g id="Bullets" transform="translate(1.000000, 41.000000)">
                        <path d="M3,57 C1.34314575,57 0,55.6568542 0,54 C0,52.3431458 1.34314575,51 3,51 C4.65685425,51 6,52.3431458 6,54 C6,55.6568542 4.65685425,57 3,57 Z M3,56 C4.1045695,56 5,55.1045695 5,54 C5,52.8954305 4.1045695,52 3,52 C1.8954305,52 1,52.8954305 1,54 C1,55.1045695 1.8954305,56 3,56 Z" id="Combined-Shape"></path>
                    </g>
                </g>
            </g>
        </g>
    </g>
</svg>