<?xml version="1.0" encoding="UTF-8"?>
<svg width="47px" height="49px" viewBox="0 0 47 49" version="1.1" xmlns="http://www.w3.org/2000/svg" xmlns:xlink="http://www.w3.org/1999/xlink">
    <!-- Generator: Sketch 44 (41411) - http://www.bohemiancoding.com/sketch -->
    <title>Combined Shape</title>
    <desc>Created with Sketch.</desc>
    <defs></defs>
    <g id="Index" stroke="none" stroke-width="1" fill="none" fill-rule="evenodd">
        <g id="Independence_Day_Air_Travel_Forecast_2017" transform="translate(-180.000000, -2679.000000)" fill="#FFFFFF">
            <g id="Content" transform="translate(110.000000, 92.000000)">
                <g id="#3" transform="translate(45.000000, 2402.000000)">
                    <g id="Table-The-Busiest" transform="translate(0.000000, 170.000000)">
                        <g id="Header" transform="translate(153.500000, 37.000000) scale(-1, 1) translate(-153.500000, -37.000000) translate(16.000000, 10.000000)">
                            <g id="Icon-Baraban" transform="translate(240.000000, 27.000000) scale(-1, 1) translate(-240.000000, -27.000000) translate(205.000000, 0.000000)">
                                <g id="Page-1" transform="translate(9.000000, 5.000000)">
                                    <path d="M40.0525117,15.378167 C45.8817856,18.1327427 47.9446138,26.1379448 44.6594556,33.2586356 C41.524456,40.0537031 34.6534324,43.5830649 28.9653465,41.4986811 L29.1474869,44.3310118 L27.6888034,43.6418745 C27.2625089,43.9856537 26.9731124,44.4849428 26.8736567,45.0548822 C26.7718608,45.634689 26.879897,46.216864 27.176704,46.6940502 C28.0776556,48.1362653 27.7242954,50.1578926 26.3888589,51.2006766 L25.4910275,51.9020494 C25.2784653,52.0690054 24.9894587,52.0173003 24.8471006,51.7867985 C24.7035723,51.5574808 24.7593455,51.2369885 24.9719077,51.0704273 L25.8701292,50.3690544 C26.7812214,49.6582089 27.0218652,48.2787502 26.40797,47.2939864 C25.971145,46.5953764 25.8131859,45.7428354 25.9625645,44.8914785 C26.0745009,44.2493099 26.3510267,43.6667402 26.75743,43.202579 L25.5639616,42.6381653 L27.7566673,40.9638695 C27.6408306,40.9022971 27.525774,40.8391459 27.4130576,40.7736266 C25.482447,39.6487461 24.0272736,37.908931 23.1111111,35.8217843 C28.2664265,32.8781497 31.8398112,26.4935649 31.8398112,19.0835628 C31.8398112,17.7964627 31.731385,16.5405435 31.5266232,15.3280408 C34.3289338,14.1786892 37.3566772,14.1044865 40.0525117,15.378167 Z M30.8148148,18.3499194 C30.8148148,25.70823 27.176061,32.0478845 21.9258648,34.9717684 C20.2758939,35.8904794 18.4686317,36.4752562 16.5632609,36.6437911 L18.3470883,39.8537923 L16.2184908,39.8537923 C15.8971556,40.4903054 15.8264539,41.2338185 16.022671,41.954599 C16.2216684,42.6883136 16.672491,43.309149 17.292521,43.7022664 C19.1688961,44.8906332 19.8632026,47.4480518 18.8400141,49.4038401 L18.1512685,50.7199798 C17.9888135,51.0315733 17.6150478,51.1307345 17.3155586,50.939859 C17.0168638,50.7513351 16.9064421,50.3456756 17.0696915,50.0336902 L17.7584372,48.7179424 C18.4563184,47.3849492 17.9828555,45.6400254 16.7026782,44.8283145 C15.7926919,44.2529443 15.1321475,43.3436399 14.8402051,42.2669765 C14.6193616,41.4540897 14.6284972,40.6212139 14.8592707,39.8537923 L13.1171493,39.8537923 L14.8183591,36.6865127 C14.6451796,36.6790658 14.4727946,36.6680915 14.3016012,36.6535896 C6.30873555,35.9786663 0,28.0422419 0,18.3499194 C0,8.21587871 6.89778389,0 15.4074074,0 C22.8437952,0 29.0492586,6.27459223 30.4958628,14.6205955 C30.7047903,15.8250319 30.8148148,17.0721899 30.8148148,18.3499194 Z M13,4.81481481 L11.3634473,7.98495848 L7.7037037,8.49338502 L10.3516501,10.9606811 L9.72689454,14.4444444 L13,12.7995804 L16.2731055,14.4444444 L15.6483499,10.9606811 L18.2962963,8.49338502 L14.6365527,7.98495848 L13,4.81481481 Z M20.7037037,16.3703704 L19.0669153,19.8567676 L15.4074074,20.4159331 L18.0553656,23.1302825 L17.4305067,26.962963 L20.7037037,25.153663 L23.9769007,26.962963 L23.3520418,23.1302825 L26,20.4159331 L22.3404921,19.8567676 L20.7037037,16.3703704 Z M10.1107525,26 L9.36708812,27.5849567 L7.7037037,27.8390625 L8.90740741,29.0726443 L8.62342369,30.8148148 L10.1107525,29.9921756 L11.5987985,30.8148148 L11.3148148,29.0726443 L12.5185185,27.8390625 L10.8547755,27.5849567 L10.1107525,26 Z M38.037037,20.2222222 L36.4005111,23.7090188 L32.7407407,24.2681844 L35.388509,26.9821344 L34.7636053,30.8148148 L38.037037,29.0055148 L41.3104688,30.8148148 L40.6855651,26.9821344 L43.3333333,24.2681844 L39.673563,23.7090188 L38.037037,20.2222222 Z M32.2590657,33.7037037 L31.5154964,35.2886973 L29.8518519,35.543094 L31.0552652,36.7768165 L30.7711529,38.5185185 L32.2590657,37.6967152 L33.7469786,38.5185185 L33.4624791,36.7768165 L34.6666667,35.543094 L33.0030222,35.2886973 L32.2590657,33.7037037 Z" id="Combined-Shape"></path>
                                </g>
                            </g>
                        </g>
                    </g>
                </g>
            </g>
        </g>
    </g>
</svg>