<?xml version="1.0" encoding="UTF-8"?>
<svg width="20px" height="17px" viewBox="0 0 20 17" version="1.1" xmlns="http://www.w3.org/2000/svg" xmlns:xlink="http://www.w3.org/1999/xlink">
    <!-- Generator: Sketch Beta 43.2 (39056) - http://www.bohemiancoding.com/sketch -->
    <title>Shape Copy 3</title>
    <desc>Created with Sketch Beta.</desc>
    <defs></defs>
    <g id="Page-1" stroke="none" stroke-width="1" fill="none" fill-rule="evenodd">
        <g id="Most-Kid-Friendly-Cities-to-Visit_1440_2" transform="translate(-926.000000, -297.000000)" fill="#0091D9">
            <g id="Banner" transform="translate(139.000000, 92.000000)">
                <g id="Button" transform="translate(629.000000, 182.000000)">
                    <path d="M174.312998,24.1658676 C174.332751,23.6906412 173.937706,23.2946192 173.463653,23.3144203 L172.890839,23.3342214 C172.713069,23.3342214 172.5353,23.4134258 172.397034,23.5322324 L167.89353,27.2944412 L159.716115,26.6212039 C159.498841,26.6014028 159.281567,26.6806072 159.123549,26.839016 L158.313708,27.650861 L164.812186,30.7794347 L161.80985,34.1654227 L159.498841,34.2842293 C159.40008,34.2842293 159.301319,34.3238315 159.242062,34.4030359 L158.926027,34.7198535 L161.612328,36.0465271 L162.935726,38.7394766 L163.251761,38.422659 C163.33077,38.3434546 163.370274,38.2642502 163.370274,38.1652447 L163.469035,35.828715 L166.886168,32.7991468 L170.026769,39.3137085 L170.83661,38.5018634 C170.994627,38.3434546 171.073636,38.1256425 171.053884,37.9078305 L170.382309,29.7101754 L174.135229,25.1955247 C174.214237,25.0767181 174.273494,24.9183093 174.293246,24.7400994 L174.312998,24.1658676 Z" id="Shape-Copy-3" transform="translate(166.313708, 31.313708) rotate(-315.000000) translate(-166.313708, -31.313708) "></path>
                </g>
            </g>
        </g>
    </g>
</svg>