<svg xmlns="http://www.w3.org/2000/svg" width="6" height="6" viewBox="0 0 6 6" version="1.1"><title>Combined Shape</title><desc>Created with Sketch.</desc><defs><linearGradient x1="50" y1="100" x2="50" y2="0" id="linearGradient-1"><stop stop-color="#BD3753" offset="0"/><stop stop-color="#BD3753" offset="100"/></linearGradient></defs><g id="Index" stroke="none" stroke-width="1" fill="none" fill-rule="evenodd"><g id="Propety_Taxes_1440" transform="translate(-260.000000, -21657.000000)" fill="url(#linearGradient-1)"><g id="Content" transform="translate(110.000000, 90.000000)"><g id="Methodology" transform="translate(45.000000, 21048.000000)"><g id="Sources" transform="translate(104.000000, 262.000000)"><g id="Links" transform="translate(0.000000, 38.000000)"><g id="Bullets" transform="translate(1.000000, 11.000000)"><path d="M3 214C1.34 214 0 212.66 0 211 0 209.34 1.34 208 3 208 4.66 208 6 209.34 6 211 6 212.66 4.66 214 3 214ZM3 213C4.1 213 5 212.1 5 211 5 209.9 4.1 209 3 209 1.9 209 1 209.9 1 211 1 212.1 1.9 213 3 213Z" id="Combined-Shape"/></g></g></g></g></g></g></g></svg>