<?xml version="1.0" encoding="UTF-8"?>
<svg width="1877px" height="680px" viewBox="0 0 1877 680" version="1.1" xmlns="http://www.w3.org/2000/svg" xmlns:xlink="http://www.w3.org/1999/xlink">
    <!-- Generator: Sketch 42 (36781) - http://www.bohemiancoding.com/sketch -->
    <title>Clouds</title>
    <desc>Created with Sketch.</desc>
    <defs></defs>
    <g id="Page-1" stroke="none" stroke-width="1" fill="none" fill-rule="evenodd">
        <g id="Travel_with_Pets_1920" transform="translate(-22.000000, -248.000000)">
            <g id="Clouds" transform="translate(22.000000, 248.000000)">
                <g>
                    <path d="M1840.97064,67.9392569 C1838.80579,67.9392569 1836.68851,68.0835737 1834.63071,68.3447752 C1832.29933,66.7525197 1829.75384,65.372565 1827.05372,64.2335358 C1823.48528,50.8717095 1809.36615,40.8899971 1792.47553,40.8899971 C1788.89519,40.8899971 1785.4457,41.3432234 1782.18652,42.1781139 C1774.87122,23.649508 1753.47247,10.2328175 1728.2079,10.2328175 C1706.36904,10.2328175 1687.42062,20.2586599 1677.95236,34.9408058 C1674.44339,34.2669299 1670.7679,33.9043489 1666.98535,33.9043489 C1649.79736,33.9043489 1634.84559,41.2835883 1627.14965,52.161019 C1623.93805,51.4382423 1620.55993,51.053 1617.08665,51.053 C1604.22837,51.053 1592.79746,56.3068467 1585.43458,64.4744613 C1583.85257,64.2788584 1582.23487,64.1762861 1580.5815,64.1762861 C1562.96529,64.1762861 1548.69153,75.7120876 1548.69153,89.9398146 C1548.69153,104.168734 1562.96529,115.703343 1580.5815,115.703343 C1584.82794,115.703343 1588.87217,115.028274 1592.57146,113.81172 C1599.36339,118.36068 1607.85628,121.072882 1617.08665,121.072882 C1622.39173,121.072882 1627.47081,120.166429 1632.10978,118.536007 C1640.95952,125.922403 1653.98433,130.600175 1668.53167,130.600175 C1681.69922,130.600175 1693.61781,126.768028 1702.32481,120.562406 C1710.04454,126.015434 1720.17891,129.329949 1731.28866,129.329949 C1738.31849,129.329949 1744.94389,128.00128 1750.83182,125.65166 C1756.75543,130.337781 1764.23726,133.140628 1772.37331,133.140628 C1779.41503,133.140628 1785.95717,131.039089 1791.44068,127.437133 C1796.68629,129.462339 1802.50285,130.600175 1808.64056,130.600175 C1820.78516,130.600175 1831.70459,126.180026 1839.28158,119.137128 C1839.84063,119.155019 1840.41158,119.166946 1840.97064,119.166946 C1860.87065,119.166946 1877,107.699128 1877,93.5536978 C1877,79.4070745 1860.87065,67.9392569 1840.97064,67.9392569 L1840.97064,67.9392569 Z M119.040815,98.8385547 C127.142366,98.8385547 133.710676,94.166746 133.710676,88.4024234 C133.710676,82.6381007 127.142366,77.9650993 119.040815,77.9650993 C118.157031,77.9650993 117.294658,78.0247343 116.453695,78.1308847 C115.505679,77.4820555 114.472021,76.9202934 113.369373,76.4563328 C111.915828,71.011654 106.16588,66.9445445 99.2894937,66.9445445 C97.8323802,66.9445445 96.425225,67.1282204 95.0989544,67.4681401 C92.1193061,59.9195372 83.4039835,54.4521971 73.1125995,54.4521971 C64.2164759,54.4521971 56.5015063,58.5371971 52.6464005,64.5197839 C51.2166451,64.2454628 49.7202788,64.0975679 48.1799018,64.0975679 C41.1798099,64.0975679 35.0908599,67.1043664 31.9577687,71.5364423 C30.6457719,71.2418453 29.2719221,71.0844088 27.855251,71.0844088 C22.6215374,71.0844088 17.9659113,73.2253066 14.9672313,76.5541343 C14.322533,76.4742234 13.6611819,76.4324788 12.987936,76.4324788 C5.81536946,76.4324788 0,81.1329124 0,86.9306307 C0,92.7283489 5.81536946,97.4275898 12.987936,97.4275898 C14.7174404,97.4275898 16.3660602,97.1520759 17.8743213,96.6571051 C20.6374842,98.510562 24.0976825,99.6150029 27.855251,99.6150029 C30.0201052,99.6150029 32.0838536,99.2464584 33.9751274,98.5821241 C37.5780634,101.591308 42.8843352,103.497244 48.8079474,103.497244 C54.1701248,103.497244 59.0279626,101.935999 62.5726141,99.407473 C65.7164106,101.629474 69.845097,102.979612 74.3698802,102.979612 C77.2305805,102.979612 79.9307009,102.438126 82.3263143,101.48158 C84.7421489,103.391093 87.7872186,104.532508 91.0999214,104.532508 C93.9677586,104.532508 96.635763,103.676149 98.8684176,102.209127 C101.001156,103.034476 103.370601,103.497244 105.869699,103.497244 C110.815558,103.497244 115.264215,101.696266 118.348537,98.8266277 C118.578107,98.8349766 118.807677,98.8385547 119.040815,98.8385547 L119.040815,98.8385547 Z M742.775766,221.94841 C740.732238,221.94841 738.733911,222.084378 736.7903,222.331267 C734.59452,220.828464 732.202475,219.526035 729.651039,218.451412 C726.288378,205.84218 712.982851,196.423422 697.068793,196.423422 C693.695427,196.423422 690.439819,196.850409 687.369771,197.637591 C680.475542,180.153791 660.307903,167.49208 636.489748,167.49208 C615.905791,167.49208 598.051691,176.953775 589.130588,190.808187 C585.819075,190.172477 582.358876,189.830172 578.792814,189.830172 C562.59566,189.830172 548.503887,196.794352 541.252814,207.058734 C538.21845,206.376509 535.03659,206.012736 531.758382,206.012736 C519.648283,206.012736 508.87397,210.970793 501.935731,218.678025 C500.441743,218.494349 498.912072,218.39774 497.355042,218.39774 C480.754654,218.39774 467.298063,229.282327 467.298063,242.709752 C467.298063,256.137177 480.754654,267.021764 497.355042,267.021764 C501.355264,267.021764 505.171117,266.384861 508.662242,265.236291 C515.056888,269.530013 523.063281,272.089549 531.758382,272.089549 C536.768473,272.089549 541.545426,271.234382 545.922714,269.694606 C554.258593,276.665942 566.538788,281.080127 580.246359,281.080127 C592.655018,281.080127 603.896797,277.463858 612.100643,271.606505 C619.376695,276.753009 628.930601,279.881463 639.401596,279.881463 C646.019865,279.881463 652.269395,278.626742 657.812373,276.409511 C663.40412,280.832045 670.451792,283.477455 678.117992,283.477455 C684.754103,283.477455 690.926317,281.493994 696.09223,278.094797 C701.029763,280.006696 706.513267,281.080127 712.296521,281.080127 C723.741701,281.080127 734.035464,276.90806 741.173535,270.262331 C741.704044,270.280222 742.23812,270.290956 742.775766,270.290956 C761.525544,270.290956 776.724724,259.469582 776.724724,246.119683 C776.724724,232.769784 761.525544,221.94841 742.775766,221.94841 L742.775766,221.94841 Z M418.465136,38.9381007 C417.286361,38.9381007 416.127807,39.0108555 414.996612,39.1504015 C409.742677,33.3371781 401.581652,29.599254 392.409569,29.599254 C389.927124,29.599254 387.517236,29.8735752 385.22035,30.3876292 C379.728519,22.6470015 369.055312,17.3955401 356.788201,17.3955401 C354.08808,17.3955401 351.466466,17.6543562 348.959041,18.1326292 C342.202793,7.6845708 328.68078,0.549835036 313.090261,0.549835036 C295.052981,0.549835036 279.777674,10.0974044 274.557045,23.2827109 C272.231611,22.6899387 269.765818,22.3667168 267.210814,22.3667168 C255.158999,22.3667168 245.081722,29.4704423 242.535044,38.9786526 C240.603328,39.7896891 238.79175,40.7712818 237.127667,41.9043474 C235.65509,41.7182861 234.142071,41.6157139 232.594557,41.6157139 C218.394541,41.6157139 206.88275,49.7761723 206.88275,59.8437591 C206.88275,69.9101533 218.394541,78.0706117 232.594557,78.0706117 C233.002549,78.0706117 233.405783,78.0622628 233.809016,78.0491431 C239.214015,83.0608715 247.011059,86.2072161 255.678802,86.2072161 C260.058469,86.2072161 264.212134,85.3973723 267.950671,83.9565898 C271.862872,86.5197036 276.53753,88.0153504 281.564274,88.0153504 C287.370127,88.0153504 292.707326,86.019962 296.941876,82.6851708 C301.140741,84.3573372 305.873684,85.3031489 310.886154,85.3031489 C318.81642,85.3031489 326.052029,82.9439869 331.561702,79.0641314 C337.775547,83.4795095 346.289847,86.2072161 355.687932,86.2072161 C366.068527,86.2072161 375.369074,82.8783883 381.682835,77.6209635 C384.997917,78.7814613 388.616316,79.4267124 392.409569,79.4267124 C398.995722,79.4267124 405.058503,77.4969226 409.902067,74.2599328 C412.546282,75.1246409 415.43553,75.606492 418.465136,75.606492 C431.037944,75.606492 441.229411,67.3971328 441.229411,57.2722964 C441.229411,47.1462672 431.037944,38.9381007 418.465136,38.9381007 L418.465136,38.9381007 Z" id="Fill-3" fill-opacity="0.310000002" fill="#B1E5F9"></path>
                    <g id="Group-2" transform="translate(166.000000, 230.000000)">
                        <path d="M132.141,26.462 C131.161,26.462 130.203,26.527 129.27,26.645 C128.217,25.924 127.069,25.299 125.846,24.783 C124.232,18.73 117.85,14.208 110.217,14.208 C108.598,14.208 107.037,14.413 105.564,14.791 C102.257,6.397 92.583,0.319 81.158,0.319 C71.284,0.319 62.72,4.861 58.441,11.513 C56.852,11.207 55.192,11.043 53.482,11.043 C45.712,11.043 38.953,14.386 35.474,19.314 C34.019,18.986 32.493,18.812 30.92,18.812 C25.111,18.812 19.943,21.192 16.615,24.892 C15.898,24.803 15.165,24.757 14.418,24.757 C6.455,24.757 0,29.983 0,36.429 C0,42.875 6.455,48.1 14.418,48.1 C16.337,48.1 18.167,47.794 19.841,47.243 C22.909,49.304 26.749,50.533 30.92,50.533 C33.323,50.533 35.615,50.122 37.715,49.383 C41.713,52.73 47.604,54.849 54.179,54.849 C60.131,54.849 65.524,53.113 69.459,50.302 C72.949,52.772 77.532,54.274 82.554,54.274 C85.729,54.274 88.727,53.671 91.386,52.607 C94.068,54.73 97.449,56 101.126,56 C104.309,56 107.27,55.048 109.748,53.416 C112.116,54.334 114.747,54.849 117.521,54.849 C123.011,54.849 127.948,52.846 131.372,49.656 C131.627,49.664 131.883,49.67 132.141,49.67 C141.135,49.67 148.426,44.475 148.426,38.066 C148.426,31.657 141.135,26.462 132.141,26.462" id="cloud" fill-opacity="0.68" fill="#B1E5F9"></path>
                        <path d="M1237.60267,436.831141 C1238.66972,433.533522 1238.27593,429.814957 1235.64642,428.455467 L1233.39799,427.286739 C1231.91175,426.514793 1230.26036,426.407967 1228.76141,426.828913 C1228.13897,426.21212 1227.4149,425.676717 1226.58921,425.253228 C1223.68023,423.74113 1220.31394,424.013283 1217.73524,425.658913 C1217.07469,424.883152 1216.249,424.190054 1215.25817,423.673728 C1211.82837,421.89838 1207.87775,422.735185 1206.41691,425.541913 C1204.96877,428.348641 1206.56934,432.063391 1209.99914,433.838739 C1211.23133,434.479696 1212.53973,434.76838 1213.77192,434.759478 C1214.25463,437.374174 1215.88061,439.748511 1218.4212,441.066033 C1219.86934,441.815087 1221.4191,442.119033 1222.94346,442.044 C1223.09589,443.93762 1224.06132,445.748576 1225.77622,446.87025 L1227.89761,448.262804 C1237.51375,452.942804 1241.01977,441.706989 1237.60267,436.831141 L1237.60267,436.831141 Z M638.98234,196.114576 C638.578386,196.045902 638.176972,196.002663 637.78064,195.98613 C636.418883,193.576185 633.910048,191.743609 630.777498,191.201848 C629.92894,191.054326 629.086734,191.011087 628.262311,191.060685 C626.964069,187.941109 623.70957,185.414163 619.520134,184.688 C618.597899,184.527761 617.682015,184.466717 616.790267,184.49088 C615.260831,180.318304 611.174288,176.943109 605.849207,176.021098 C599.687001,174.954109 593.758529,177.497587 590.991824,181.949946 C590.24235,181.597674 589.424279,181.335696 588.551585,181.184359 C584.434556,180.470913 580.46234,182.439565 578.883362,185.723196 C578.163104,185.901239 577.472063,186.149228 576.819131,186.459533 C576.330067,186.30438 575.820678,186.178478 575.292235,186.086913 C570.440974,185.246293 565.900936,187.512533 565.150191,191.148435 C564.399446,194.783065 567.723811,198.410065 572.575072,199.250685 C572.713534,199.274848 572.851996,199.295196 572.990458,199.314272 C574.464002,201.443163 576.891538,203.040467 579.852598,203.55425 C581.349007,203.812413 582.827631,203.76663 584.212254,203.4665 C585.358061,204.623783 586.843037,205.440239 588.560478,205.737826 C590.54341,206.081196 592.514909,205.676783 594.210755,204.722978 C595.51916,205.575043 597.06638,206.196924 598.777469,206.493239 C601.487011,206.962511 604.134308,206.53775 606.305244,205.46313 C608.098902,207.425424 610.803362,208.913359 614.01467,209.469109 C617.560067,210.083359 620.984785,209.432228 623.532999,207.907413 C624.579723,208.521663 625.76745,208.969315 627.063152,209.193141 C629.312846,209.583565 631.528243,209.245283 633.423524,208.362696 C634.26192,208.831967 635.213372,209.176609 636.248663,209.354652 C640.542264,210.09862 644.635158,207.738272 645.390984,204.082022 C646.14554,200.425772 643.275941,196.858543 638.98234,196.114576 L638.98234,196.114576 Z M105.137526,188.140848 C104.737383,188.195533 104.346132,188.276924 103.966313,188.381207 C101.942732,186.471054 99.0146991,185.46638 95.894852,185.894957 C95.0513754,186.010685 94.2421968,186.224337 93.4825597,186.521924 C91.2989207,183.909772 87.4550048,182.461261 83.2820821,183.033543 C82.3636581,183.159446 81.4833429,183.376913 80.6500287,183.671957 C77.9252436,180.114902 73.0358739,178.100467 67.7336581,178.827902 C61.5993983,179.669793 56.7938682,183.921217 55.5565998,189.051413 C54.74234,188.9395 53.8899713,188.935685 53.0210888,189.053957 C48.9231137,189.617337 45.7854823,192.719109 45.307851,196.362641 C44.6841356,196.753065 44.1074212,197.201989 43.5891404,197.699239 C43.0797517,197.699239 42.5614709,197.731033 42.0355683,197.803522 C37.2059026,198.466098 33.6249379,202.026967 34.0352436,205.75825 C34.4468195,209.489533 38.6946896,211.977054 43.5243553,211.31575 C43.6628176,211.296674 43.8000096,211.273783 43.9359312,211.250891 C45.9785673,212.855826 48.7592455,213.658293 51.7063324,213.25388 C53.1963897,213.04913 54.5759312,212.555696 55.789064,211.847337 C57.2244986,212.614196 58.8746132,212.951207 60.5844317,212.715935 C62.5584718,212.445054 64.292426,211.456913 65.5957498,210.023663 C67.0921585,210.447152 68.7410029,210.57687 70.4457402,210.34287 C73.1425788,209.974065 75.5065998,208.762098 77.2214995,207.06687 C79.5156543,208.413641 82.5224451,209.02662 85.71851,208.589141 C89.2486628,208.104609 92.2757784,206.437359 94.2091691,204.194011 C95.3829226,204.469978 96.6405158,204.539924 97.9311366,204.363152 C100.170669,204.055391 102.153601,203.057076 103.667794,201.631457 C104.602732,201.828576 105.604995,201.871815 106.635205,201.730652 C110.911022,201.14438 114.042302,197.62675 113.628185,193.873848 C113.215339,190.120946 109.413343,187.554576 105.137526,188.140848 L105.137526,188.140848 Z" id="Fill-3" fill="#B3DFEB"></path>
                        <g id="Strelka" opacity="0.840000033" transform="translate(419.000000, 137.000000)" fill="#FFFFFF">
                            <path d="M46.0441081,10.2247778 C44.265027,9.86077778 42.5446757,10.1482222 41.1251351,10.8776667 C40.6108919,10.0716667 39.9476757,9.37255556 39.1541081,8.82511111 L39.1884865,8.26177778 C39.4334324,4.28088889 36.4324865,0.853222222 32.4847027,0.606222222 L29.6255676,0.427111111 C27.7390541,0.308666667 25.9886216,0.952888889 24.6364054,2.07666667 C23.7139189,1.72133333 22.7212432,1.49888889 21.6841622,1.43388889 C17.9942162,1.20277778 14.6552162,3.01988889 12.7357568,5.90733333 C11.7044054,5.40322222 10.5283784,5.07677778 9.26497297,4.99733333 C4.92183784,4.72577778 1.22186486,7.40955556 1.00127027,10.9917778 C0.780675676,14.5754444 4.12254054,17.7012222 8.46424324,17.9727778 C10.0313243,18.071 11.511027,17.7792222 12.7772973,17.2057778 C14.4618378,19.6988889 17.2221351,21.4163333 20.4393784,21.6171111 C22.2728919,21.7326667 24.0161622,21.334 25.5474324,20.5597778 C26.563027,22.4592222 28.3850811,23.8978889 30.6597838,24.2777778 L33.485973,24.7501111 C36.3751892,25.2311111 39.1397838,23.8921111 40.6452703,21.5694444 C41.5305135,22.218 42.5604324,22.7177778 43.7235676,22.9561111 C47.6154865,23.7505556 51.2896757,21.5463333 51.9314054,18.0305556 C52.5731351,14.5147778 49.9374595,11.0206667 46.0441081,10.2247778" id="Fill-3"></path>
                        </g>
                    </g>
                </g>
            </g>
        </g>
    </g>
</svg>