<?xml version="1.0" encoding="UTF-8"?>
<svg width="16px" height="10px" viewBox="0 0 16 10" version="1.1" xmlns="http://www.w3.org/2000/svg" xmlns:xlink="http://www.w3.org/1999/xlink">
    <!-- Generator: Sketch 48.1 (47250) - http://www.bohemiancoding.com/sketch -->
    <title>Combined Shape</title>
    <desc>Created with Sketch.</desc>
    <defs></defs>
    <g id="GrumpyReport_1440" stroke="none" stroke-width="1" fill="none" fill-rule="evenodd" transform="translate(-1097.000000, -6485.000000)">
        <g id="Content" transform="translate(110.000000, 90.000000)" fill="#FC6860">
            <g id="Geographical-Observation-Grumpy" transform="translate(0.000000, 5584.000000)">
                <g id="Buttons-under-the-Grumpy-Map" transform="translate(775.000000, 701.000000)">
                    <g id="Share-window" transform="translate(92.000000, 67.000000)">
                        <g id="socials" transform="translate(24.000000, 32.000000)">
                            <g id="Google+" transform="translate(88.000000, 0.000000)">
                                <path d="M12.9678865,15.2843803 C14.5498982,15.2795967 16.1318783,15.2772208 17.716282,15.2891639 C17.8111486,16.6259996 17.6356423,18.0487497 16.8197395,19.1540096 C15.5840192,20.903817 13.1031044,21.4146778 11.1677196,20.6651133 C9.22518986,19.9203008 7.84953032,17.8553791 8.01320189,15.749908 C8.0558824,13.1741256 10.4087242,10.918241 12.9678865,11.004187 C14.1941328,10.9468791 15.3468213,11.484002 16.2860443,12.23835 C15.8852064,12.6966865 15.470173,13.1383279 15.0266231,13.5512996 C13.8976669,12.7659058 12.2919544,12.5415211 11.1629668,13.4486586 C9.54774875,14.5730211 9.47422245,17.2275583 11.0277804,18.4378668 C12.5386264,19.8176281 15.3942861,19.132531 15.8117115,17.0198687 C14.8653436,17.0055179 13.9166466,17.0198687 12.9702787,16.9888229 C12.9678865,16.4206859 12.9655259,15.852549 12.9678865,15.2843803 Z M22.5816599,15.422 C23.0536636,15.4267836 23.5280278,15.4267836 24,15.4315672 L24,16.8519413 C23.5280278,16.8567249 23.0560242,16.8591009 22.5816599,16.8638844 C22.5769072,17.3413235 22.5745465,17.816355 22.5721859,18.2914181 L21.1585986,18.2914181 C21.1538458,17.816355 21.1538458,17.3413235 21.1490931,16.8662604 C20.6770894,16.8615085 20.2027252,16.8567249 19.730753,16.8519413 L19.730753,15.4315672 C20.2027252,15.4267836 20.6747288,15.424376 21.1490931,15.422 C21.1514852,14.944561 21.1562065,14.4695295 21.1609592,13.9944664 L22.5721859,13.9944664 C22.5745465,14.4694978 22.5769072,14.9469369 22.5816599,15.422 Z" id="Combined-Shape"></path>
                            </g>
                        </g>
                    </g>
                </g>
            </g>
        </g>
    </g>
</svg>