<?xml version="1.0" encoding="UTF-8"?>
<svg width="86px" height="87px" viewBox="0 0 86 87" version="1.1" xmlns="http://www.w3.org/2000/svg" xmlns:xlink="http://www.w3.org/1999/xlink">
    <!-- Generator: Sketch 49.1 (51147) - http://www.bohemiancoding.com/sketch -->
    <title>icon_cards</title>
    <desc>Created with Sketch.</desc>
    <defs>
        <linearGradient x1="46.8809395%" y1="-25.671438%" x2="50%" y2="100%" id="linearGradient-1">
            <stop stop-color="#D24361" offset="0%"></stop>
            <stop stop-color="#880B22" offset="100%"></stop>
        </linearGradient>
        <linearGradient x1="50%" y1="0%" x2="50%" y2="307.645672%" id="linearGradient-2">
            <stop stop-color="#D24361" offset="0%"></stop>
            <stop stop-color="#880B22" offset="100%"></stop>
        </linearGradient>
        <linearGradient x1="50%" y1="-65.8506174%" x2="50%" y2="297.524704%" id="linearGradient-3">
            <stop stop-color="#D24361" offset="0%"></stop>
            <stop stop-color="#880B22" offset="100%"></stop>
        </linearGradient>
        <linearGradient x1="50%" y1="-1021.80681%" x2="50%" y2="1902.05989%" id="linearGradient-4">
            <stop stop-color="#D24361" offset="0%"></stop>
            <stop stop-color="#880B22" offset="100%"></stop>
        </linearGradient>
    </defs>
    <g id="Report" stroke="none" stroke-width="1" fill="none" fill-rule="evenodd">
        <g id="Wine_Destination_1440" transform="translate(-162.000000, -6134.000000)">
            <g id="Content" transform="translate(110.000000, 90.000000)">
                <g id="Great-Credit-Cards" transform="translate(45.000000, 5965.000000)">
                    <g id="Header" transform="translate(2.000000, 74.000000)">
                        <g id="icon_cards">
                            <rect id="baseline" x="0" y="0" width="96" height="96"></rect>
                            <g id="Group-3" transform="translate(5.000000, 5.000000)">
                                <g id="Page-1" transform="translate(20.000000, 22.000000)" fill="url(#linearGradient-1)">
                                    <path d="M45.0366,22.4179 C51.8556,26.7989 59.4216,22.2999 59.4216,22.2999 C57.7206,29.7379 47.8496,38.5229 40.9906,38.4049 C34.1906,38.2899 27.5646,31.6639 27.4486,24.8639 C27.4426,24.4499 27.5626,23.9999 27.6186,23.5699 C29.8626,23.3609 31.8626,22.8799 32.9126,22.2789 C35.4386,20.8399 38.2166,18.0369 45.0366,22.4179 Z M40.9596,40.4259 C32.7346,40.2829 25.5656,33.1289 25.4286,24.8969 C25.2886,16.7069 35.7646,5.3889 44.2306,4.2529 L61.5956,21.6169 C60.4626,30.0859 49.1476,40.5669 40.9596,40.4259 Z M45.7856,0.0929 L44.8906,0.1369 C34.1656,0.6849 21.2056,14.3749 21.3876,24.9639 C21.4646,29.4459 23.1036,33.6529 25.9056,37.0869 L11.4816,51.5109 L4.3386,44.3679 C3.5476,43.5789 2.2706,43.5789 1.4786,44.3679 C0.6896,45.1569 0.6896,46.4359 1.4786,47.2259 L10.8326,56.5779 L11.4816,57.2299 L18.6246,64.3719 C19.4166,65.1619 20.6926,65.1619 21.4816,64.3719 C22.2726,63.5829 22.2726,62.3049 21.4816,61.5159 L14.3396,54.3719 L28.7636,39.9479 C32.2006,42.7459 36.4016,44.3879 40.8916,44.4669 C51.4846,44.6479 65.1716,31.6879 65.7116,20.9619 L65.7596,20.0649 L45.7856,0.0929 Z" id="Fill-1"></path>
                                </g>
                                <g id="Group">
                                    <path d="M11.992,4.2263 L9.37,14.0083 L13.214,14.0083 L14.257,10.1193 L37.576,16.3693 L35.534,23.9943 C35.366,24.6183 34.658,25.0343 33.913,24.9713 L33.913,28.6863 C33.968,28.6873 34.023,28.6983 34.079,28.6983 C36.46,28.6983 38.533,27.1573 39.123,24.9563 L42.488,12.3983 C43.214,9.6763 41.495,6.8443 38.651,6.0833 L18.471,0.6753 C18.001,0.5503 17.518,0.4863 17.035,0.4863 C14.654,0.4863 12.582,2.0233 11.992,4.2263 Z M15.217,6.5333 L15.579,5.1883 C15.735,4.6053 16.333,4.1993 17.035,4.1993 C17.193,4.1993 17.352,4.2213 17.509,4.2613 L37.689,9.6693 C38.539,9.8973 39.093,10.7073 38.898,11.4353 L38.538,12.7823 L15.217,6.5333 Z" id="Clip-5" fill="url(#linearGradient-2)"></path>
                                    <path d="M5.824,15.8663 C2.881,15.8663 0.486,18.1573 0.486,20.9723 L0.486,33.9723 C0.486,36.7883 2.881,39.0783 5.824,39.0783 L26.717,39.0783 C29.662,39.0783 32.057,36.7863 32.057,33.9723 L32.057,20.9723 C32.056,18.1573 29.663,15.8663 26.716,15.8663 L5.824,15.8663 Z M4.201,33.9723 L4.201,20.9723 C4.201,20.2183 4.945,19.5813 5.824,19.5813 L26.717,19.5813 C27.599,19.5813 28.342,20.2183 28.342,20.9723 L28.342,33.9723 C28.342,34.7283 27.598,35.3653 26.716,35.3653 L5.824,35.3653 C4.945,35.3653 4.201,34.7283 4.201,33.9723 Z" id="Clip-8" fill="url(#linearGradient-3)"></path>
                                    <path d="M7.334,30.1873 C6.82,30.1873 6.405,30.6023 6.405,31.1143 L6.405,32.0433 C6.405,32.5563 6.82,32.9723 7.334,32.9723 L11.047,32.9723 C11.561,32.9723 11.976,32.5563 11.976,32.0433 L11.976,31.1143 C11.977,30.6023 11.561,30.1873 11.047,30.1873 L7.334,30.1873 Z" id="Clip-11" fill="url(#linearGradient-4)"></path>
                                    <path d="M14.413,30.1873 C13.902,30.1873 13.485,30.6023 13.485,31.1143 L13.485,32.0433 C13.485,32.5563 13.901,32.9723 14.413,32.9723 L18.128,32.9723 C18.64,32.9723 19.057,32.5563 19.057,32.0433 L19.057,31.1143 C19.057,30.6023 18.64,30.1873 18.128,30.1873 L14.413,30.1873 Z" id="Clip-14" fill="url(#linearGradient-4)"></path>
                                    <path d="M21.493,30.1873 C20.981,30.1873 20.565,30.6023 20.565,31.1143 L20.565,32.0433 C20.565,32.5563 20.98,32.9723 21.493,32.9723 L25.208,32.9723 C25.721,32.9723 26.137,32.5563 26.137,32.0433 L26.137,31.1143 C26.137,30.6023 25.721,30.1873 25.208,30.1873 L21.493,30.1873 Z" id="Clip-17" fill="url(#linearGradient-4)"></path>
                                    <path d="M7.334,22.2633 C6.822,22.2633 6.405,22.6523 6.405,23.1283 L6.405,26.5963 C6.406,27.0723 6.822,27.4613 7.334,27.4613 L14.374,27.4613 C14.886,27.4613 15.303,27.0723 15.303,26.5963 L15.303,23.1283 C15.303,22.6523 14.886,22.2633 14.374,22.2633 L7.334,22.2633 Z M8.262,25.2023 L8.262,24.5203 C8.262,24.0423 8.68,23.6533 9.191,23.6533 L12.518,23.6533 C13.029,23.6533 13.447,24.0423 13.447,24.5203 L13.447,25.2023 C13.447,25.6783 13.029,26.0673 12.518,26.0673 L9.191,26.0673 C8.68,26.0673 8.262,25.6783 8.262,25.2023 Z" id="Clip-20" fill="url(#linearGradient-4)"></path>
                                </g>
                            </g>
                        </g>
                    </g>
                </g>
            </g>
        </g>
    </g>
</svg>