<?xml version="1.0" encoding="UTF-8"?>
<svg width="30px" height="22px" viewBox="0 0 30 22" version="1.1" xmlns="http://www.w3.org/2000/svg" xmlns:xlink="http://www.w3.org/1999/xlink">
    <!-- Generator: Sketch 42 (36781) - http://www.bohemiancoding.com/sketch -->
    <title>Icons</title>
    <desc>Created with Sketch.</desc>
    <defs>
        <polygon id="path-1" points="3.97350996e-05 0.0587443439 26.750404 0.0587443439 26.750404 19.0036222 3.97350996e-05 19.0036222 3.97350996e-05 0.0587443439"></polygon>
    </defs>
    <g id="Page-1" stroke="none" stroke-width="1" fill="none" fill-rule="evenodd">
        <g id="Mid-Sized_Cities_for_Visit_1440" transform="translate(-1276.000000, -11190.000000)">
            <g id="Credit-Cards-you-may-like" transform="translate(110.000000, 11174.000000)">
                <g id="Icons" transform="translate(1166.000000, 12.000000)">
                    <g transform="translate(0.000000, 3.000000)">
                        <g id="Group-3" transform="translate(0.000000, 0.144876)" fill="#81DAF6">
                            <path d="M27.0790706,3.98475822 L6.01057258,3.98475822 C4.40021681,3.98475822 3.09003112,5.31156904 3.09003112,6.94235884 L3.09003112,7.74400518 L30.0000099,7.74400518 L30.0000099,6.94235884 C29.9996121,5.31156904 28.6899237,3.98475822 27.0790706,3.98475822 L27.0790706,3.98475822 Z M6.3687278,19.8542134 L13.3338074,19.8542134 L13.3338074,18.891714 L6.3687278,18.891714 L6.3687278,19.8542134 Z M6.3687278,17.2901336 L9.85151625,17.2901336 L9.85151625,16.3276342 L6.3687278,16.3276342 L6.3687278,17.2901336 Z M21.7842217,19.8542134 L26.7209154,19.8542134 L26.7209154,16.3276342 L21.7842217,16.3276342 L21.7842217,19.8542134 Z M3.09003112,19.8975238 C3.09003112,21.5283136 4.40021681,22.8551244 6.01057258,22.8551244 L27.0790706,22.8551244 C28.6894264,22.8551244 29.9996121,21.5283136 29.9996121,19.8975238 L29.9996121,10.5889986 L3.09003112,10.5889986 L3.09003112,19.8975238 Z M6.01057258,2.95296212 L26.7832768,2.95296212 C26.4182588,1.74047076 25.3041087,0.855124434 23.9894473,0.855124434 L2.92094923,0.855124434 C1.31059347,0.855124434 9.93377398e-06,2.18233814 9.93377398e-06,3.81312794 L9.93377398e-06,16.7682929 C9.93377398e-06,18.1000391 0.874262741,19.2283269 2.07116357,19.5975737 L2.07116357,6.94195595 C2.07116357,4.74218761 3.83836765,2.95296212 6.01057258,2.95296212 L6.01057258,2.95296212 Z" id="Fill-1"></path>
                        </g>
                        <g id="Group-6" transform="translate(0.000000, 1.043066)">
                            <mask id="mask-2" fill="white">
                                <use xlink:href="#path-1"></use>
                            </mask>
                            <g id="Clip-5"></g>
                            <path d="M6.00321854,2.17922172 L26.750404,2.17922172 C26.3858344,0.953633484 25.2729536,0.0587239819 23.9600066,0.0587239819 L2.91739073,0.0587239819 C1.30891391,0.0587239819 3.97350996e-05,1.40027376 3.97350996e-05,3.04867873 L3.97350996e-05,16.1437805 C3.97350996e-05,17.4899118 0.873218543,18.6303869 2.06864901,19.0036222 L2.06864901,6.21130317 C2.06864901,3.98777376 3.83368212,2.17922172 6.00321854,2.17922172" id="Fill-4" fill="#3BC5F1" mask="url(#mask-2)"></path>
                        </g>
                    </g>
                </g>
            </g>
        </g>
    </g>
</svg>