<?xml version="1.0" encoding="UTF-8"?>
<svg width="16px" height="16px" viewBox="0 0 16 16" version="1.1" xmlns="http://www.w3.org/2000/svg" xmlns:xlink="http://www.w3.org/1999/xlink">
    <!-- Generator: Sketch 47.1 (45422) - http://www.bohemiancoding.com/sketch -->
    <title>Combined Shape</title>
    <desc>Created with Sketch.</desc>
    <defs></defs>
    <g id="Page-1" stroke="none" stroke-width="1" fill="none" fill-rule="evenodd">
        <g id="320_Financial_Institutions" transform="translate(-106.000000, -4838.000000)" fill-rule="nonzero" fill="#07B45D">
            <g id="Zoom" transform="translate(106.000000, 4834.000000)">
                <path d="M15.7386541,18.479829 L12.456095,15.2033129 C12.619188,14.9936771 12.77211,14.7756701 12.9107569,14.5480452 C12.968928,14.4525781 13.0247793,14.3555081 13.0783109,14.2571912 C13.1853742,14.0603794 13.283337,13.8576899 13.3713073,13.6500134 C13.5913223,13.1306439 13.7499543,12.5788583 13.8379246,12.0040965 C13.8730771,11.7741562 13.8969879,11.5404756 13.9091217,11.303767 C13.9151886,11.1853237 13.9182221,11.066168 13.9182221,10.9462998 C13.9182221,7.10998308 10.8025032,4 6.95911104,4 C6.83902176,4 6.71964624,4.00302787 6.60098448,4.00908362 C6.36383939,4.02101701 6.12972775,4.04488378 5.89936333,4.08014961 C5.32336307,4.16795797 4.77073828,4.32629798 4.2504109,4.54590792 C4.04217288,4.63371627 3.83928803,4.7314988 3.64211322,4.83836495 C3.54343659,4.89179802 3.44636591,4.94754653 3.35072275,5.00561047 C3.06379324,5.17962419 2.79042509,5.37376436 2.5325811,5.58624989 C2.36074459,5.72784754 2.19586719,5.87746015 2.03830578,6.03455339 C1.88074437,6.19164663 1.73103426,6.3562205 1.58917546,6.52791878 C0.596342284,7.72838187 0,9.26778876 0,10.9461216 C0,11.0659898 0.00303345866,11.1851456 0.00910037597,11.3035889 C0.0210557719,11.5402974 0.0449665636,11.7739781 0.0802974351,12.0039184 C0.168267736,12.5788583 0.32689978,13.1304658 0.546914752,13.6498352 C0.634885053,13.8576899 0.732847924,14.0602013 0.839911171,14.2570131 C0.893442794,14.3555081 0.949294121,14.4524 1.00746515,14.5478671 C1.58864014,15.5027162 2.3939342,16.3065277 3.35054431,16.8866328 C3.44618747,16.9446968 3.54343659,17.0004453 3.64193478,17.0538784 C3.83910959,17.1607445 4.04217288,17.258527 4.25023246,17.3463354 C4.77055984,17.5659453 5.32336307,17.7242853 5.8991849,17.8120937 C6.12954932,17.8471814 6.36366095,17.8710482 6.60080604,17.8831597 C6.7194678,17.8892154 6.83884332,17.8922433 6.9589326,17.8922433 C8.55131996,17.8922433 10.017908,17.3572001 11.1907859,16.4589901 L14.4769138,19.7390685 C14.65107,19.9130822 14.8794716,20 15.1076947,20 C15.3359179,20 15.5644979,19.9130822 15.7384757,19.7390685 C16.087145,19.3913973 16.087145,18.8275002 15.7386541,18.479829 Z M1.42750996,10.9461216 C1.42750996,7.90150503 3.90905758,5.42470389 6.95911104,5.42470389 C10.0093429,5.42470389 12.4907121,7.90150503 12.4907121,10.9461216 C12.4907121,13.9905602 10.0093429,16.4675394 6.95911104,16.4675394 C3.90905758,16.4675394 1.42750996,13.9905602 1.42750996,10.9461216 Z M9.4574319,10.2336806 L7.67304446,10.2336806 L7.67304446,8.45257815 C7.67304446,8.0591326 7.35346066,7.74013714 6.95928948,7.74013714 C6.56511829,7.74013714 6.2455345,8.0591326 6.2455345,8.45257815 L6.2455345,10.2336806 L4.46114705,10.2336806 C4.06697587,10.2336806 3.74739207,10.5526761 3.74739207,10.9461216 C3.74739207,11.3395672 4.06697587,11.6585627 4.46114705,11.6585627 L6.2455345,11.6585627 L6.2455345,13.4396652 C6.2455345,13.8331107 6.56511829,14.1521062 6.95928948,14.1521062 C7.35346066,14.1521062 7.67304446,13.8331107 7.67304446,13.4396652 L7.67304446,11.6585627 L9.4574319,11.6585627 C9.85160309,11.6585627 10.1711869,11.3395672 10.1711869,10.9461216 C10.1711869,10.5526761 9.85160309,10.2336806 9.4574319,10.2336806 Z" id="Combined-Shape"></path>
            </g>
        </g>
    </g>
</svg>