<?xml version="1.0" encoding="UTF-8"?>
<svg width="32px" height="32px" viewBox="0 0 32 32" version="1.1" xmlns="http://www.w3.org/2000/svg" xmlns:xlink="http://www.w3.org/1999/xlink">
    <!-- Generator: Sketch 49.1 (51147) - http://www.bohemiancoding.com/sketch -->
    <title>icon_entertainment</title>
    <desc>Created with Sketch.</desc>
    <defs>
        <linearGradient x1="50%" y1="0%" x2="50%" y2="100%" id="linearGradient-1">
            <stop stop-color="#D24361" offset="0%"></stop>
            <stop stop-color="#880B22" offset="100%"></stop>
        </linearGradient>
        <linearGradient x1="50%" y1="0%" x2="50%" y2="155.856386%" id="linearGradient-2">
            <stop stop-color="#D24361" offset="0%"></stop>
            <stop stop-color="#880B22" offset="100%"></stop>
        </linearGradient>
    </defs>
    <g id="Report" stroke="none" stroke-width="1" fill="none" fill-rule="evenodd">
        <g id="Wine_Destination_1440" transform="translate(-179.000000, -6599.000000)">
            <g id="Content" transform="translate(110.000000, 90.000000)">
                <g id="Great-Credit-Cards" transform="translate(45.000000, 5965.000000)">
                    <g id="Entertainment" transform="translate(0.000000, 520.000000)">
                        <g id="icon_entertainment" transform="translate(24.000000, 24.000000)">
                            <g id="Group-4"></g>
                            <path d="M16,29.7647474 C23.60206,29.7647474 29.7647474,23.60206 29.7647474,16 C29.7647474,8.39793995 23.60206,2.23525264 16,2.23525264 C8.39793995,2.23525264 2.23525264,8.39793995 2.23525264,16 C2.23525264,23.60206 8.39793995,29.7647474 16,29.7647474 Z M16,32 C7.163444,32 0,24.836556 0,16 C0,7.163444 7.163444,0 16,0 C24.836556,0 32,7.163444 32,16 C32,24.836556 24.836556,32 16,32 Z" id="Combined-Shape-Copy-3" fill="url(#linearGradient-1)" fill-rule="nonzero"></path>
                            <g id="Page-1" transform="translate(9.000000, 6.000000)" fill="url(#linearGradient-2)">
                                <path d="M6.02583996,13.0666667 C4.50435606,13.0666667 3.26666667,11.9718919 3.26666667,10.626092 L3.26666667,2.44009739 C3.26666667,1.09477477 4.50435606,0 6.02583996,0 L7.97409471,0 C9.49557862,0 10.733268,1.09477477 10.733268,2.44009739 L10.733268,3.73292428 C10.733268,4.12855125 10.3696226,4.44972973 9.92234946,4.44972973 L8.44294915,4.44972973 C7.99567604,4.44448016 7.63742593,4.11805211 7.64390033,3.72242513 C7.6498352,3.33300219 8.01348064,3.01564159 8.46129328,3.01564159 L9.11143091,3.01564159 L9.11143091,2.44009739 C9.11143091,1.87600682 8.61182307,1.43408814 7.97409471,1.43408814 L6.02583996,1.43408814 C5.3881116,1.43408814 4.88850377,1.87600682 4.88850377,2.44009739 L4.88850377,3.01564159 L5.55698553,3.01564159 C6.00425863,3.0213684 6.36304828,3.34731921 6.35657388,3.74294619 C6.35009948,4.13284636 5.98645403,4.44972973 5.53864139,4.44972973 L4.88850377,4.44972973 L4.88850377,5.81605065 L5.55698553,5.81605065 C6.00425863,5.82130022 6.36304828,6.14772827 6.35657388,6.54335525 C6.35009948,6.93277818 5.98645403,7.25013879 5.53864139,7.25013879 L4.88850377,7.25013879 L4.88850377,8.6164597 L5.55698553,8.6164597 C5.77387791,8.61932311 5.9762029,8.69615778 6.12673269,8.83360117 C6.27780202,8.97104456 6.35927154,9.15239347 6.35657388,9.3437643 C6.35009948,9.73366448 5.98645403,10.0510251 5.53864139,10.0510251 L4.88850377,10.0510251 L4.88850377,10.626092 C4.88850377,11.1901826 5.3881116,11.6321013 6.02583996,11.6321013 L7.97409471,11.6321013 C8.61182307,11.6321013 9.11143091,11.1901826 9.11143091,10.626092 L9.11143091,10.0510251 L8.47640022,10.0505478 L8.44564682,10.0515023 L8.43809335,10.0515023 C8.00430858,10.0515023 7.6482166,9.7508449 7.62771433,9.36714877 C7.61800273,9.17577794 7.69245833,8.99204285 7.83813232,8.85030436 C7.98434585,8.70856586 8.18397317,8.62552715 8.40032602,8.61693694 L8.46129328,8.6164597 L9.11143091,8.6164597 L9.11143091,7.25013879 L8.47640022,7.25013879 L8.44564682,7.25061602 L8.43809335,7.25061602 C8.00430858,7.25061602 7.6482166,6.95043584 7.62771433,6.56673971 C7.61800273,6.37536888 7.69245833,6.19211103 7.83813232,6.0498953 C7.98434585,5.90815681 8.18397317,5.82511809 8.40032602,5.81652788 L8.46129328,5.81605065 L9.11143091,5.81605065 L9.11143091,5.43999026 C9.11790531,5.05009009 9.48155075,4.73272949 9.93367966,4.73272949 L9.93421919,4.73272949 C10.150572,4.73559289 10.352897,4.8129048 10.5039664,4.94987095 C10.6550357,5.08731434 10.7359657,5.26866326 10.733268,5.45621622 L10.733268,10.626092 C10.733268,11.9718919 9.49557862,13.0666667 7.97409471,13.0666667 L6.02583996,13.0666667 Z" id="Fill-1"></path>
                                <path d="M6.81476431,16.5267497 L7.18516505,16.5267497 L7.18516505,15.4089936 L6.81476431,15.4089936 L6.81476431,16.5267497 Z M13.9999263,6.96903103 C14.0029875,6.78729715 13.9105404,6.61112655 13.7391152,6.47760778 C13.5676901,6.34455262 13.3381029,6.26944831 13.0925976,6.26666667 C12.5795467,6.26666667 12.1662896,6.57496522 12.1595551,6.9532684 L12.1595551,11.1549372 C12.1595551,12.7590169 10.5004047,14.0153914 8.38146759,14.0153914 L5.61784954,14.0153914 C3.49952467,14.0153914 1.84037427,12.7590169 1.84037427,11.1549372 L1.84037427,6.96903103 C1.84159873,6.58562817 1.43017841,6.27269356 0.922637571,6.27176634 C0.896311569,6.27176634 0.872434496,6.27222995 0.848557424,6.27362077 C0.37101598,6.30190079 -0.00122145308,6.6078813 3.01216256e-06,6.96995825 L3.01216256e-06,11.1549372 C3.01216256e-06,13.3255445 2.158123,15.1303659 4.97439305,15.3732959 L4.97439305,16.5267497 L2.30199767,16.5267497 L2.23281538,16.5272133 C1.73813142,16.5619838 1.37997534,16.8610102 1.38181204,17.224478 L1.38181204,18.8976351 C1.37813864,19.0798326 1.47058577,19.2555396 1.6420109,19.3890584 C1.81343603,19.5225771 2.04302327,19.5976814 2.28914078,19.5999995 C2.80219172,19.6004631 4.24583624,19.5911909 4.49195375,19.5939726 L11.6979317,19.5939726 C12.2048603,19.5939726 12.6181173,19.2815016 12.6181173,18.8976351 L12.6181173,17.2235508 C12.6181173,16.8392207 12.2048603,16.5267497 11.6979317,16.5267497 L9.0255363,16.5267497 L9.0255363,15.3732959 C11.8411941,15.1303659 13.9999263,13.3255445 13.9999263,11.1549372 L13.9999263,6.96903103 Z" id="Fill-3"></path>
                            </g>
                        </g>
                    </g>
                </g>
            </g>
        </g>
    </g>
</svg>