<?xml version="1.0" encoding="UTF-8"?>
<svg width="16px" height="13px" viewBox="0 0 16 13" version="1.1" xmlns="http://www.w3.org/2000/svg" xmlns:xlink="http://www.w3.org/1999/xlink">
    <!-- Generator: Sketch 42 (36781) - http://www.bohemiancoding.com/sketch -->
    <title>Shape</title>
    <desc>Created with Sketch.</desc>
    <defs></defs>
    <g id="Page-1" stroke="none" stroke-width="1" fill="none" fill-rule="evenodd">
        <g id="Travel_with_Pets_1920" transform="translate(-1584.000000, -7491.000000)" fill="#BBE6FB">
            <g id="Footer" transform="translate(0.000000, 7094.000000)">
                <g transform="translate(0.000000, 374.000000)" id="Group-4">
                    <g transform="translate(280.000000, 17.000000)">
                        <g id="socials" transform="translate(1264.000000, 0.000000)">
                            <path d="M54.1146093,8.05590403 C54.7927654,7.64991982 55.3127499,7.00684083 55.5579644,6.23969308 C54.9236547,6.61612163 54.2214644,6.88926781 53.4734791,7.03672127 C52.874896,6.39883889 52.0216796,6 51.0775227,6 C49.2648844,6 47.7952216,7.46966283 47.7952216,9.28262591 C47.7952216,9.53953271 47.8241276,9.78994377 47.8803159,10.0306112 C45.152102,9.89355094 42.7330857,8.58693137 41.1140207,6.60085663 C40.8314557,7.08543938 40.6697115,7.64927024 40.6697115,8.25142602 C40.6697115,9.39013052 41.2491322,10.3950226 42.1299555,10.9835373 C41.5921077,10.9663236 41.0857642,10.8185454 40.643079,10.5726813 C40.6427542,10.5863224 40.6427542,10.6002882 40.6427542,10.6142541 C40.6427542,12.204413 41.7743134,13.5308447 43.2761302,13.8328969 C43.0007105,13.907598 42.7106754,13.9478716 42.4112214,13.9478716 C42.19946,13.9478716 41.9938696,13.92741 41.7934758,13.8887603 C42.2114772,15.1927816 43.4235836,16.1421351 44.8597934,16.1684428 C43.7363539,17.0489414 42.3212553,17.5737978 40.7830623,17.5737978 C40.5183606,17.5737978 40.2569068,17.558208 40,17.527678 C41.4530987,18.4594929 43.1783692,19.0025374 45.0319307,19.0025374 C51.0700526,19.0025374 54.3715161,14.000812 54.3715161,9.66295191 C54.3715161,9.52069504 54.3685931,9.37876297 54.3624221,9.23780525 C55.0035524,8.77595762 55.5602379,8.19751132 56,7.53916733 C55.4118101,7.80062116 54.7787995,7.9769807 54.1146093,8.05590403 Z" id="Shape"></path>
                        </g>
                    </g>
                </g>
            </g>
        </g>
    </g>
</svg>