<?xml version="1.0" encoding="UTF-8"?>
<svg width="32px" height="32px" viewBox="0 0 32 32" version="1.1" xmlns="http://www.w3.org/2000/svg" xmlns:xlink="http://www.w3.org/1999/xlink">
    <!-- Generator: Sketch 49.1 (51147) - http://www.bohemiancoding.com/sketch -->
    <title>icon_supermarkets</title>
    <desc>Created with Sketch.</desc>
    <defs>
        <linearGradient x1="50%" y1="0%" x2="50%" y2="100%" id="linearGradient-1">
            <stop stop-color="#D24361" offset="0%"></stop>
            <stop stop-color="#880B22" offset="100%"></stop>
        </linearGradient>
        <linearGradient x1="50%" y1="-145.336914%" x2="50%" y2="153.995768%" id="linearGradient-2">
            <stop stop-color="#D24361" offset="0%"></stop>
            <stop stop-color="#880B22" offset="100%"></stop>
        </linearGradient>
        <linearGradient x1="50%" y1="-23.6794242%" x2="50%" y2="124.813725%" id="linearGradient-3">
            <stop stop-color="#D24361" offset="0%"></stop>
            <stop stop-color="#880B22" offset="100%"></stop>
        </linearGradient>
    </defs>
    <g id="Report" stroke="none" stroke-width="1" fill="none" fill-rule="evenodd">
        <g id="Wine_Destination_1440" transform="translate(-179.000000, -6885.000000)">
            <g id="Content" transform="translate(110.000000, 90.000000)">
                <g id="Great-Credit-Cards" transform="translate(45.000000, 5965.000000)">
                    <g id="Supermarkets" transform="translate(0.000000, 806.000000)">
                        <g id="icon_supermarkets" transform="translate(24.000000, 24.000000)">
                            <g id="Group-4"></g>
                            <path d="M16,29.7647474 C23.60206,29.7647474 29.7647474,23.60206 29.7647474,16 C29.7647474,8.39793995 23.60206,2.23525264 16,2.23525264 C8.39793995,2.23525264 2.23525264,8.39793995 2.23525264,16 C2.23525264,23.60206 8.39793995,29.7647474 16,29.7647474 Z M16,32 C7.163444,32 0,24.836556 0,16 C0,7.163444 7.163444,0 16,0 C24.836556,0 32,7.163444 32,16 C32,24.836556 24.836556,32 16,32 Z" id="Combined-Shape-Copy-3" fill="url(#linearGradient-1)" fill-rule="nonzero"></path>
                            <g id="Page-1" transform="translate(8.000000, 6.000000)">
                                <path d="M9.55773035,10 C8.76189485,10 8.11473191,10.639645 8.11473191,11.4246313 C8.11473191,12.0491666 8.53597085,12.6024703 9.13211869,12.7845065 C9.0636127,14.2314426 8.6008329,14.7984171 7.50109318,14.7984171 C6.39989589,14.7984171 5.9363873,14.2321621 5.8686101,12.7845065 C6.46475794,12.6017508 6.88599688,12.0491666 6.88599688,11.4246313 C6.88599688,10.639645 6.23883394,10 5.44299844,10 C4.64789172,10 4,10.639645 4,11.4246313 C4,11.9031059 4.23977095,12.3376904 4.64497657,12.6046289 C4.68505986,14.857417 5.64633004,16 7.50109318,16 C9.35512754,16 10.3156689,14.857417 10.356481,12.6046289 C10.760229,12.3376904 11,11.9031059 11,11.4246313 C11,10.639645 10.3528371,10 9.55773035,10" id="Fill-4" fill="url(#linearGradient-2)"></path>
                                <path d="M1.6608,17.8385714 L2.69138824,8.21095238 L8.81374118,8.21095238 C9.24762353,8.21095238 9.60056471,7.85380952 9.60056471,7.41571429 C9.60056471,6.97761905 9.24762353,6.62047619 8.81374118,6.62047619 L7.7408,6.62047619 C7.98738824,6.00428571 8.41185882,4.56619048 8.54268235,4.11761905 L9.42550588,4.10619048 C9.53750588,4.1052381 9.64574118,4.08142857 9.74550588,4.0347619 L9.78221176,4.1747619 C10.1332706,5.50619048 10.3469176,6.27571429 10.6593882,6.64238095 C10.6622118,6.64619048 10.6650353,6.65 10.6688,6.65380952 C10.3450353,6.75190476 10.1088,7.05666667 10.1088,7.41571429 C10.1088,7.85380952 10.4617412,8.21095238 10.8946824,8.21095238 L12.3186824,8.21095238 L13.5553882,17.8385714 L1.6608,17.8385714 Z M4.19350588,1.68809524 C4.68103529,1.68809524 5.79256471,2.75380952 6.64997647,5.03952381 C6.44385882,5.73571429 6.35727059,5.9252381 6.32338824,5.97571429 C6.19256471,6.17190476 6.07397647,6.38809524 5.97138824,6.62047619 L4.63585882,6.62047619 L5.36527059,5.9947619 C5.52432941,5.85857143 5.62221176,5.66714286 5.64009412,5.4547619 C5.65703529,5.24238095 5.59209412,5.03761905 5.45562353,4.87571429 C5.31068235,4.70047619 5.09044706,4.60142857 4.85327059,4.60142857 C4.66503529,4.60142857 4.48621176,4.6652381 4.34785882,4.78333333 L3.46315294,5.54142857 C3.45844706,5.50333333 3.45468235,5.4652381 3.45091765,5.42714286 L4.79868235,4.29952381 C4.95868235,4.16428571 5.05562353,3.97095238 5.07444706,3.75857143 C5.09232941,3.54619048 5.02550588,3.34047619 4.88997647,3.17857143 C4.74409412,3.00428571 4.52385882,2.90428571 4.28668235,2.90428571 C4.09750588,2.90428571 3.91868235,2.97 3.78691765,3.08333333 L3.44056471,3.36428571 C3.55915294,2.35285714 3.86503529,1.76428571 4.19350588,1.68809524 Z M9.22785882,1.59 C9.44056471,1.59 9.80668235,1.62428571 9.87350588,1.81285714 C9.87538824,1.84428571 9.86409412,1.96142857 9.76715294,2.37761905 C9.75209412,2.44619048 9.73703529,2.51380952 9.72291765,2.58047619 C9.62597647,2.53952381 9.52150588,2.51666667 9.41138824,2.51666667 C9.41044706,2.51666667 8.58597647,2.52714286 8.58597647,2.52714286 C8.56244706,2.4452381 8.53797647,2.36238095 8.51162353,2.28047619 C8.43727059,2.04333333 8.40621176,1.91857143 8.39303529,1.85666667 C8.52668235,1.66142857 8.91727059,1.59 9.22785882,1.59 Z M13.7888,7.31380952 C13.7389176,6.91857143 13.4048,6.62047619 13.0104471,6.62047619 L12.4843294,6.62047619 C12.3177412,6.24428571 12.1069176,5.90619048 11.8622118,5.61857143 C11.7530353,5.46809524 11.4424471,4.30142857 11.2993882,3.7652381 L11.1892706,3.35 C11.1798588,3.26142857 11.2664471,2.87857143 11.2984471,2.73190476 C11.4057412,2.27095238 11.5149176,1.79380952 11.3784471,1.37666667 C11.0960941,0.501428571 10.3130353,0.000476190476 9.22785882,0.000476190476 C8.67162353,0.000476190476 7.32950588,0.133809524 6.88244706,1.37761905 C6.82032941,1.55190476 6.80527059,1.73 6.81844706,1.91380952 C6.00056471,0.747142857 5.07632941,0.0976190476 4.19162353,0.0976190476 C4.03632941,0.0976190476 3.88197647,0.117619048 3.73138824,0.156666667 C2.08244706,0.585238095 1.40762353,3.17095238 2.02974118,6.62142857 L1.98362353,6.62142857 C1.58362353,6.62142857 1.24950588,6.9252381 1.20432941,7.33 L0.00432941176,18.5471429 C-0.0192,18.7719048 0.0523294118,18.997619 0.202917647,19.1671429 C0.351623529,19.3328571 0.564329412,19.4290476 0.785505882,19.4290476 L14.4495059,19.4290476 C14.6753882,19.4290476 14.8909176,19.33 15.0386824,19.1595238 C15.1902118,18.9861905 15.2589176,18.757619 15.2288,18.5319048 L13.7888,7.31380952 Z" id="Fill-1" fill="url(#linearGradient-3)"></path>
                            </g>
                        </g>
                    </g>
                </g>
            </g>
        </g>
    </g>
</svg>