<?xml version="1.0" encoding="UTF-8"?>
<svg width="12px" height="12px" viewBox="0 0 12 12" version="1.1" xmlns="http://www.w3.org/2000/svg" xmlns:xlink="http://www.w3.org/1999/xlink">
    <!-- Generator: Sketch 42 (36781) - http://www.bohemiancoding.com/sketch -->
    <title>Combined Shape@2x</title>
    <desc>Created with Sketch.</desc>
    <defs></defs>
    <g id="Outside-v.2" stroke="none" stroke-width="1" fill="none" fill-rule="evenodd">
        <g id="Store-Single-Page-WP" transform="translate(-1193.000000, -35.000000)" fill="#FFFFFF">
            <g id="Header" transform="translate(150.000000, 24.000000)">
                <g id="Register" transform="translate(1021.000000, 0.000000)">
                    <g id="user" transform="translate(20.000000, 9.000000)">
                        <path d="M8,2 C10.0171477,2 11.6666667,3.64951333 11.6666667,5.66666667 C11.6666667,6.77709033 11.1713243,7.77415133 10.3854167,8.44791667 C12.492224,9.26287533 14,11.1177677 14,13.3333333 C13.9999633,13.701508 13.701508,13.9999633 13.3333333,14 L8,14 L2.66666667,14 C2.29849204,13.9999633 2.0000367,13.701508 2,13.3333333 C2,11.1177677 3.507776,9.26287533 5.61458333,8.44791667 C4.82867567,7.77415133 4.33333333,6.77709033 4.33333333,5.66666667 C4.33333333,3.64951333 5.98285233,2 8,2 Z M8,3.33333333 C6.70343867,3.33333333 5.66666667,4.3701 5.66666667,5.66666667 C5.66666667,6.96323333 6.70343867,8 8,8 C9.296561,8 10.3333333,6.96323333 10.3333333,5.66666667 C10.3333333,4.3701 9.296561,3.33333333 8,3.33333333 Z M8,9.33333333 C5.642778,9.33333333 3.771215,10.8020333 3.40625,12.6666667 L8,12.6666667 L12.59375,12.6666667 C12.228785,10.8020333 10.357222,9.33333333 8,9.33333333 Z" id="Combined-Shape"></path>
                    </g>
                </g>
            </g>
        </g>
    </g>
</svg>