<?xml version="1.0" encoding="utf-8"?>
<!-- Generator: Adobe Illustrator 19.0.0, SVG Export Plug-In . SVG Version: 6.00 Build 0)  -->
<svg version="1.1" id="Layer_1" xmlns="http://www.w3.org/2000/svg" xmlns:xlink="http://www.w3.org/1999/xlink" x="0px" y="0px"
	 viewBox="-299 391 12 12" style="enable-background:new -299 391 12 12;" xml:space="preserve">
<style type="text/css">
	.st0{fill:#00D34D;}
</style>
<title>Combined Shape@2x</title>
<desc>Created with Sketch.</desc>
<g id="Outside-v.2">
	<g id="Store-Single-Page-WP" transform="translate(-1193.000000, -35.000000)">
		<g id="Header" transform="translate(150.000000, 24.000000)">
			<g id="Register" transform="translate(1021.000000, 0.000000)">
				<g id="user" transform="translate(20.000000, 9.000000)">
					<path id="Combined-Shape" class="st0" d="M-291,393c2,0,3.7,1.6,3.7,3.7c0,1.1-0.5,2.1-1.3,2.8c2.1,0.8,3.6,2.7,3.6,4.9
						c0,0.4-0.3,0.7-0.7,0.7h-5.3h-5.3c-0.4,0-0.7-0.3-0.7-0.7c0-2.2,1.5-4.1,3.6-4.9c-0.8-0.7-1.3-1.7-1.3-2.8
						C-294.7,394.6-293,393-291,393z M-291,394.3c-1.3,0-2.3,1-2.3,2.3s1,2.3,2.3,2.3s2.3-1,2.3-2.3S-289.7,394.3-291,394.3z
						 M-291,400.3c-2.4,0-4.2,1.5-4.6,3.3h4.6h4.6C-286.8,401.8-288.6,400.3-291,400.3z"/>
				</g>
			</g>
		</g>
	</g>
</g>
</svg>
