<?xml version="1.0" encoding="UTF-8"?>
<svg width="32px" height="32px" viewBox="0 0 32 32" version="1.1" xmlns="http://www.w3.org/2000/svg" xmlns:xlink="http://www.w3.org/1999/xlink">
    <!-- Generator: Sketch 49.1 (51147) - http://www.bohemiancoding.com/sketch -->
    <title>icon_Gluten_Free</title>
    <desc>Created with Sketch.</desc>
    <defs>
        <linearGradient x1="50%" y1="0%" x2="50%" y2="100%" id="linearGradient-1">
            <stop stop-color="#D24361" offset="0%"></stop>
            <stop stop-color="#880B22" offset="100%"></stop>
        </linearGradient>
        <linearGradient x1="50%" y1="0%" x2="50%" y2="143.867188%" id="linearGradient-2">
            <stop stop-color="#D24361" offset="0%"></stop>
            <stop stop-color="#880B22" offset="100%"></stop>
        </linearGradient>
    </defs>
    <g id="Report" stroke="none" stroke-width="1" fill="none" fill-rule="evenodd">
        <g id="Wine_Destination_1440" transform="translate(-179.000000, -6313.000000)" fill-rule="nonzero">
            <g id="Content" transform="translate(110.000000, 90.000000)">
                <g id="Great-Credit-Cards" transform="translate(45.000000, 5965.000000)">
                    <g id="Dining" transform="translate(0.000000, 234.000000)">
                        <g id="icon_Gluten_Free" transform="translate(24.000000, 24.000000)">
                            <path d="M16,29.7647474 C23.60206,29.7647474 29.7647474,23.60206 29.7647474,16 C29.7647474,8.39793995 23.60206,2.23525264 16,2.23525264 C8.39793995,2.23525264 2.23525264,8.39793995 2.23525264,16 C2.23525264,23.60206 8.39793995,29.7647474 16,29.7647474 Z M16,32 C7.163444,32 0,24.836556 0,16 C0,7.163444 7.163444,0 16,0 C24.836556,0 32,7.163444 32,16 C32,24.836556 24.836556,32 16,32 Z" id="Combined-Shape-Copy-3" fill="url(#linearGradient-1)"></path>
                            <path d="M16,19.4760138 C17.6726667,19.4642281 19.0302222,18.142695 19.0302222,16.4998909 C19.0302222,14.8450828 17.6726667,13.523768 16,13.523768 C14.3273333,13.523768 12.9697778,14.8450828 12.9697778,16.4998909 C12.9697778,18.142695 14.3273333,19.4642281 16,19.4760138 Z M19.5273333,11.964119 C18.5455556,11.2141954 17.3333333,10.7855429 16,10.7855429 C14.7031111,10.7855429 13.5031111,11.2021913 12.5455556,11.9045354 L12.5455556,13.1544808 C13.4304444,12.2853901 14.6546667,11.7377887 16,11.7377887 C17.3453333,11.7377887 18.5697778,12.2853901 19.4544444,13.1544808 L19.4544444,12.6426732 C19.4546667,12.4165612 19.4788889,12.190231 19.5273333,11.964119 Z M20.4,10.3808984 C20.994,9.79750323 21.8182222,9.42843431 22.7273333,9.42843431 C24.5333333,9.42843431 26,10.8689162 26,12.6426732 L26,13.5951373 C26,15.059409 25.006,16.2855647 23.6364444,16.6666376 L23.6364444,22.6666812 C23.6364444,23.154699 23.2242222,23.5595617 22.7273333,23.5595617 C22.2182222,23.5595617 21.8182222,23.154699 21.8182222,22.6666812 L21.8182222,21.3451482 C20.4122222,22.9761666 18.3273333,24 16,24 C13.6726667,24 11.5877778,22.9761666 10.1817778,21.3571522 L10.1817778,22.6666812 C10.1817778,23.154699 9.76955556,23.5595617 9.27266667,23.5595617 C8.76355556,23.5595617 8.36355556,23.154699 8.36355556,22.6666812 L8.36355556,16.4998909 C8.36355556,16.4761011 8.36355556,16.4640971 8.36355556,16.4403073 C6.994,16.0594527 6,14.833297 6,13.3570213 L6,10.3213148 C6,9.83329702 6.4,9.42843431 6.90911111,9.42843431 C7.406,9.42843431 7.81822222,9.83329702 7.81822222,10.3213148 L7.81822222,13.3570213 C7.81822222,13.8094636 8.03644444,14.214108 8.36377778,14.4642281 L8.36377778,10.3213148 C8.36377778,9.83329702 8.76377778,9.42843431 9.27288889,9.42843431 C9.76977778,9.42843431 10.182,9.83329702 10.182,10.3213148 L10.182,14.4642281 C10.5093333,14.2143263 10.7275556,13.8094636 10.7275556,13.3570213 L10.7275556,11.6188398 L10.7275556,11.368938 L10.7275556,10.3213148 C10.7275556,9.83329702 11.1275556,9.42843431 11.6366667,9.42843431 C11.976,9.42843431 12.2668889,9.60696676 12.4244444,9.88087658 C13.4911111,9.32127118 14.7033333,9.00000007 16.0002222,9.00000007 C17.6364444,8.99978181 19.1515556,9.51180765 20.4,10.3808984 Z M20.8362222,16.2024096 C20.8484444,16.2975687 20.8484444,16.4047318 20.8484444,16.5001092 C20.8484444,19.1191672 18.6786667,21.2502074 16,21.2619931 C13.3213333,21.2499891 11.1515556,19.1189489 11.1515556,16.4998909 C11.1515556,16.3213585 11.1637778,16.142826 11.188,15.9640753 C10.8848889,16.1784015 10.5455556,16.34493 10.182,16.4403073 C10.182,16.4640971 10.182,16.4761011 10.182,16.4998909 C10.182,18.0713257 10.8244444,19.4998036 11.8788889,20.535641 C12.9455556,21.5712602 14.388,22.214239 16,22.214239 C17.612,22.214239 19.0544444,21.5714785 20.1091111,20.535641 C21.1273333,19.5355974 21.7575556,18.1904928 21.806,16.6784234 C21.4544444,16.5714785 21.1271111,16.4167358 20.8362222,16.2024096 Z M22.6908889,15.0236152 C22.7031111,15.0236152 22.7151111,15.0236152 22.7273333,15.0236152 C23.5273333,15.0116112 24.1817778,14.3808547 24.1817778,13.5951373 L24.1817778,12.6426732 C24.1817778,11.8569558 23.5273333,11.2141954 22.7273333,11.2141954 C22.1697778,11.2141954 21.6848889,11.5236807 21.4304444,11.9879087 C21.4182222,12.0237025 21.394,12.0474923 21.382,12.0830678 C21.3093333,12.2616003 21.2728889,12.4401328 21.2728889,12.6426732 L21.2728889,13.5951373 C21.2726667,14.3688507 21.9028889,14.9880397 22.6908889,15.0236152 Z" id="Shape" fill="url(#linearGradient-2)"></path>
                        </g>
                    </g>
                </g>
            </g>
        </g>
    </g>
</svg>