<?xml version="1.0" encoding="UTF-8"?>
<svg width="20px" height="12px" viewBox="0 0 20 12" version="1.1" xmlns="http://www.w3.org/2000/svg" xmlns:xlink="http://www.w3.org/1999/xlink">
    <!-- Generator: Sketch 42 (36781) - http://www.bohemiancoding.com/sketch -->
    <title>Combined Shape</title>
    <desc>Created with Sketch.</desc>
    <defs></defs>
    <g id="Page-1" stroke="none" stroke-width="1" fill="none" fill-rule="evenodd">
        <g id="Travel_with_Pets_1920" transform="translate(-1618.000000, -7491.000000)" fill="#BBE6FB">
            <g id="Footer" transform="translate(0.000000, 7094.000000)">
                <g transform="translate(0.000000, 374.000000)" id="Group-4">
                    <g transform="translate(280.000000, 17.000000)">
                        <g id="socials" transform="translate(1264.000000, 0.000000)">
                            <path d="M80.5829831,11.1769733 C82.4616219,11.17141 84.3402234,11.1686468 86.2217028,11.1825366 C86.3343568,12.7372779 86.1259431,14.3919376 85.1570586,15.677356 C83.6896407,17.7123837 80.7435544,18.3065152 78.4452849,17.434771 C76.1385308,16.5685533 74.5049351,14.1670474 74.6992951,11.7183824 C74.7499782,8.72274502 77.5439778,6.09914905 80.5829831,6.19910434 C82.0391506,6.1324552 83.4079682,6.75712968 84.5232955,7.63443718 C84.0473004,8.16748291 83.5544483,8.68111233 83.0277328,9.16139877 C81.6870974,8.24798505 79.7803138,7.98702549 78.439641,9.04202718 C76.5215695,10.3496619 76.434257,13.4368912 78.2791071,14.8444812 C80.0732367,16.4491449 83.4643326,15.6523763 83.9600253,13.195348 C82.8362134,13.178658 81.7096357,13.195348 80.5858238,13.1592417 C80.5829831,12.4984979 80.5801799,11.837754 80.5829831,11.1769733 Z M91.9880886,9.6768022 C91.9908919,10.2292642 91.9936951,10.7845263 91.9993391,11.3370252 C92.5598434,11.3425885 93.1231509,11.3425885 93.6836179,11.3481518 L93.6836179,13.0000483 C93.1231509,13.0056116 92.5626466,13.0083749 91.9993391,13.0139382 C91.9936951,13.5692003 91.9908919,14.1216623 91.9880886,14.6741612 L90.3094537,14.6741612 C90.3038098,14.1216623 90.3038098,13.5692003 90.2981659,13.0167014 C89.7376616,13.0111749 89.174354,13.0056116 88.6138871,13.0000483 L88.6138871,11.3481518 C89.174354,11.3425885 89.7348583,11.3397885 90.2981659,11.3370252 C90.3010065,10.7817631 90.3066131,10.2293011 90.312257,9.6768022 L91.9880886,9.6768022 Z" id="Combined-Shape"></path>
                        </g>
                    </g>
                </g>
            </g>
        </g>
    </g>
</svg>