<?xml version="1.0" encoding="UTF-8"?>
<svg width="6px" height="6px" viewBox="0 0 6 6" version="1.1" xmlns="http://www.w3.org/2000/svg" xmlns:xlink="http://www.w3.org/1999/xlink">
    <!-- Generator: Sketch 49.1 (51147) - http://www.bohemiancoding.com/sketch -->
    <title>Combined Shape Copy 2</title>
    <desc>Created with Sketch.</desc>
    <defs>
        <linearGradient x1="50%" y1="5.92147052%" x2="50%" y2="98.4913106%" id="linearGradient-1">
            <stop stop-color="#0D4B9A" offset="0%"></stop>
            <stop stop-color="#062869" offset="100%"></stop>
        </linearGradient>
    </defs>
    <g id="Page-1" stroke="none" stroke-width="1" fill="none" fill-rule="evenodd">
        <g id="Bad_Credit_1440" transform="translate(-260.000000, -10618.000000)" fill="url(#linearGradient-1)">
            <g id="Content" transform="translate(110.000000, 85.000000)">
                <g id="Methodology" transform="translate(45.000000, 9769.000000)">
                    <g id="Sources" transform="translate(104.000000, 611.000000)">
                        <g id="Links" transform="translate(0.000000, 38.000000)">
                            <g id="Bullets" transform="translate(1.000000, 11.000000)">
                                <path d="M3,110 C1.34314575,110 0,108.656854 0,107 C0,105.343146 1.34314575,104 3,104 C4.65685425,104 6,105.343146 6,107 C6,108.656854 4.65685425,110 3,110 Z M3,109 C4.1045695,109 5,108.104569 5,107 C5,105.895431 4.1045695,105 3,105 C1.8954305,105 1,105.895431 1,107 C1,108.104569 1.8954305,109 3,109 Z" id="Combined-Shape-Copy-2"></path>
                            </g>
                        </g>
                    </g>
                </g>
            </g>
        </g>
    </g>
</svg>