<?xml version="1.0" encoding="UTF-8"?>
<svg width="151px" height="22px" viewBox="0 0 151 22" version="1.1" xmlns="http://www.w3.org/2000/svg" xmlns:xlink="http://www.w3.org/1999/xlink">
    <!-- Generator: Sketch 42 (36781) - http://www.bohemiancoding.com/sketch -->
    <title>Page 1</title>
    <desc>Created with Sketch.</desc>
    <defs></defs>
    <g id="Page-1" stroke="none" stroke-width="1" fill="none" fill-rule="evenodd">
        <g id="Travel_with_Pets_1920" transform="translate(-280.000000, -14.000000)">
            <g id="Top-Header">
                <g id="Page-1" transform="translate(280.000000, 14.000000)">
                    <path d="M145.729665,5.03322903 C142.401809,5.27849116 139.11247,5.80638369 131.705389,6.30427634 L121,6.97637878 C121.168319,7.68269161 121.295481,8.2711102 121.436362,8.53216173 C122.015717,9.60636775 123.974862,10.1347866 127.064224,10.1379445 C128.012402,10.1395234 130.128258,10.1258393 133.362195,10.1263656 L131.190408,22 L133.495161,22 L138.83229,10.1274182 C144.280225,10.1274182 145.624664,10.1332077 145.797204,10.1274182 C148.090349,10.0574185 151.070488,9.54321012 150.998728,8.08584781 C150.893727,5.96322513 148.736714,4.78270377 145.729665,5.03322903" id="Fill-1" fill="#FEFEFE"></path>
                    <path d="M120.399446,2.00632995 L119,2 C119,2 119.46505,4.05248582 119.919118,6 L124,5.7046024 L120.399446,2.00632995 Z" id="Fill-3" fill="#FEFEFE"></path>
                    <path d="M96,22 L98.2784509,22 L98.9559145,19.2348132 L101.968817,19.2348132 C104.132227,19.2348132 106.317473,17.8967194 106.867114,15.6469005 C107.478535,13.1471593 105.902047,12 103.737572,12 L98.4467516,12 L96,22 Z M102.939742,13.7939563 C104.063522,13.7939563 104.800636,14.4397185 104.508241,15.6313774 C104.235551,16.7485253 103.171422,17.4418918 102.047641,17.4418918 L99.3942421,17.4418918 L100.285277,13.7939563 L102.939742,13.7939563 Z" id="Fill-5" fill="#FEFEFE"></path>
                    <path d="M97,12 L94.4945809,12 L90.8138178,15.6603539 L88.8709652,12 L86.433177,12 L92.11059,22 L94.6477752,22 L94.6851772,21.8395943 L92.0306625,17.0150057 L96.9677216,12.1454 L97,12 Z M88.1792851,17.7611508 L84.0358649,21.8395943 L84,22 L86.5361605,22 L88.307374,20.2257063 C88.8135814,19.7196523 88.9093919,18.9952396 88.5502306,18.3882852 L88.1792851,17.7611508 Z" id="Fill-7" fill="#FEFEFE"></path>
                    <polygon id="Fill-9" fill="#FEFEFE" points="82.599306 22 83.0338467 20.1920729 76.575347 20.1920729 77.1536889 17.780296 82.4455695 17.780296 82.8801103 15.9708165 77.5897984 15.9708165 78.1080053 13.808962 84.567028 13.808962 85 12 76.400694 12 74 22"></polygon>
                    <polygon id="Fill-11" fill="#FEFEFE" points="115.598783 22 116.033324 20.1920729 109.575347 20.1920729 110.153689 17.780296 115.445569 17.780296 115.879587 15.9708165 110.589798 15.9708165 111.107482 13.808962 117.567028 13.808962 118 12 109.400694 12 107 22"></polygon>
                    <path d="M62,22 L66.8192361,22 C70.1262385,22 73.0296197,20.2362376 73.8250224,17.0155215 C74.6274212,13.765832 72.5937089,12.0150041 69.2899355,12 L64.4696231,12 L62,22 Z M68.7474688,13.7948055 C70.8021693,13.7948055 71.9554494,14.9278767 71.4388144,17.0155215 C70.9302518,19.0741929 69.2205127,20.2062293 67.1625832,20.2062293 L64.7467762,20.2062293 L66.3284329,13.7948055 L68.7474688,13.7948055 Z" id="Fill-13" fill="#93D9F8"></path>
                    <path d="M38,22 L40.2394901,22 L41.5479215,20.0001035 L46.4161316,20.0001035 L46.7625721,22 L49,22 L47.2224305,12 L44.6385621,12 L38,22 Z M45.4458921,14.0449136 L46.2264142,18.4710752 L42.475887,18.4710752 L45.4458921,14.0449136 Z" id="Fill-15" fill="#93D9F8"></path>
                    <path d="M31.9433262,22 L34.344208,22 L41,12 L38.5815445,12 L33.7404986,19.352789 L32.6095774,12 L30.2081788,12 C30.76692,15.3390251 31.3210094,18.671841 31.9433262,22 L31.9433262,22 Z M29.6892369,16.8318328 L27.7199453,19.6906758 L26.3853755,12 L24,12 L25.7811493,22 L28.1825479,22 L29.6344482,19.900238 C30.0102159,19.3584808 30.124962,18.7691193 29.9833384,18.1393977 L29.6892369,16.8318328 Z" id="Fill-17" fill="#93D9F8"></path>
                    <polygon id="Fill-19" fill="#93D9F8" points="20.5990113 22 21.0335108 20.1920729 14.5761479 20.1920729 15.1544348 17.780296 20.4452895 17.780296 20.8787432 15.9708165 15.5884114 15.9708165 16.1070919 13.808962 22.5639319 13.808962 23 12 14.4004658 12 12 22"></polygon>
                    <path d="M0,21.8928122 L2.25384357,21.8928122 L2.88816514,19.3005944 L3.12524546,18.3280008 L3.5177451,16.7278285 L4.23899612,13.7747273 L7.0412855,13.7747273 C8.07179463,13.7747273 8.6887303,14.2840592 8.45059629,15.2587003 C8.22563341,16.1754977 7.34948992,16.7278285 6.31950764,16.7278285 L3.5177451,16.7278285 C4.69524403,19.1593124 6.89166148,22.8797387 10.4015039,21.8119334 L11,20.0459082 C10.6101346,20.1902616 10.0906653,20.2772831 9.71923943,20.2772831 C8.57703913,20.2772831 7.77886872,19.1884902 6.97016141,18.2834663 C8.7867235,18.0377584 10.4104603,16.8588727 10.8124431,15.2136539 C11.4056708,12.7852413 9.39154174,12 7.23358398,12 L2.41874611,12 L0,21.8928122 Z" id="Fill-21" fill="#93D9F8"></path>
                    <path d="M50,21.8928122 L52.2544784,21.8928122 L52.8888303,19.3005944 L53.125922,18.3280008 L53.5173867,16.7278285 L54.2391992,13.7747273 L57.0426765,13.7747273 C58.0727081,13.7747273 58.6896733,14.2840592 58.4510011,15.2587003 C58.227608,16.1754977 57.3508957,16.7278285 56.3203372,16.7278285 L53.5173867,16.7278285 C54.694942,19.1593124 56.8930453,22.8797387 60.402529,21.8119334 L61,20.0459082 C60.609589,20.1902616 60.0906217,20.2772831 59.719705,20.2772831 C58.5763962,20.2772831 57.780295,19.1884902 56.9699684,18.2834663 C58.78451,18.0377584 60.410432,16.8588727 60.812961,15.2136539 C61.4072708,12.7852413 59.3930453,12 57.2344573,12 L52.418862,12 L50,21.8928122 Z" id="Fill-23" fill="#93D9F8"></path>
                    <path d="M118,21.8928122 L120.253317,21.8928122 L120.887111,19.3005944 L121.126299,18.3280008 L121.517218,16.7278285 L122.238469,13.7747273 L125.041286,13.7747273 C126.070214,13.7747273 126.68873,14.2840592 126.450069,15.2587003 C126.225107,16.1754977 125.348963,16.7278285 124.318454,16.7278285 L121.517218,16.7278285 C122.692083,19.1593124 124.890081,22.8797387 128.399923,21.8119334 L129,20.0459082 C128.610135,20.1902616 128.089085,20.2772831 127.717659,20.2772831 C126.575459,20.2772831 125.778342,19.1884902 124.968581,18.2834663 C126.784616,18.0377584 128.40888,16.8588727 128.810863,15.2136539 C129.405144,12.7852413 127.390488,12 125.233057,12 L120.418219,12 L118,21.8928122 Z" id="Fill-25" fill="#FEFEFE"></path>
                    <polygon id="Fill-27" fill="#93D9F8" points="137 4.59426947 133.831104 0 132 0 132.632839 5"></polygon>
                </g>
            </g>
        </g>
    </g>
</svg>