<?xml version="1.0" encoding="UTF-8"?>
<svg width="39px" height="44px" viewBox="0 0 39 44" version="1.1" xmlns="http://www.w3.org/2000/svg" xmlns:xlink="http://www.w3.org/1999/xlink">
    <!-- Generator: Sketch 42 (36781) - http://www.bohemiancoding.com/sketch -->
    <title>Logotype</title>
    <desc>Created with Sketch.</desc>
    <defs></defs>
    <g id="Page-1" stroke="none" stroke-width="1" fill="none" fill-rule="evenodd">
        <g id="Travel_with_Pets_320" transform="translate(-10.000000, -7.000000)">
            <g id="Top-Header">
                <g id="Logotype" transform="translate(10.000000, 7.000000)">
                    <path d="M39,30.9741835 C39,32.2562385 38.0459072,33.8301468 36.9406392,34.4719817 L21.4206495,43.4681651 C20.3149794,44.11 18.4940412,44.11 17.3887732,43.4681651 L1.95201031,34.4719817 C0.846340206,33.8301468 0,32.2562385 0,30.9741835 L0,12.9753578 C0,11.6933028 0.840309278,10.1193945 1.94557732,9.47715596 L17.4084742,0.480972477 C18.5137423,-0.160458716 20.3065361,-0.160458716 21.4118041,0.480972477 L36.9486804,9.47715596 C38.0543505,10.1193945 39,11.6933028 39,12.9753578 L39,30.9741835 Z" id="Fill-1" fill="#2FA9E0"></path>
                    <path d="M17.408434,0.48093211 L1.94553711,9.4771156 C0.840269072,10.1193541 -4.02061851e-05,11.6932624 -4.02061851e-05,12.9753174 L-4.02061851e-05,30.9741431 C-4.02061851e-05,32.2561982 0.846702062,33.8301064 1.9519701,34.4719413 L17.388733,43.4681248 C18.494001,44.1099596 20.3149392,44.1099596 21.4206093,43.4681248 L27.7084546,39.8237945 L36.0315371,21.9440514 L22.2150835,0.924161468 L21.4117639,0.48093211 C20.3064959,-0.160499083 18.5137021,-0.160499083 17.408434,0.48093211" id="Fill-4" fill="#3DBFEF"></path>
                    <path d="M23.8865753,22.2231083 L23.3369567,19.8103743 L11.7394825,3.78347523 L1.94565773,9.48208073 C0.840389691,10.1235119 8.04123702e-05,11.6978239 8.04123702e-05,12.9798789 L8.04123702e-05,30.9783009 C8.04123702e-05,32.2607596 0.846420619,33.8346679 1.95168866,34.4765028 L14.9917608,42.075989 L23.8865753,22.2231083 Z" id="Fill-7" fill="#6DCFF5"></path>
                    <path d="M30.4577536,18.5022018 C26.9360938,18.7629725 23.4558464,19.3252844 15.6192588,19.8553028 L4.29237216,20.5714128 C4.47048557,21.3234495 4.60517629,21.9507523 4.75393918,22.2280734 C5.36708351,23.3716697 7.43971237,23.9351927 10.7084753,23.938422 C11.7116196,23.9404404 13.9494959,23.9251009 17.3718464,23.9259083 L15.0740629,36.5712661 L17.512568,36.5712661 L23.1595268,23.9267156 C28.9234856,23.9267156 30.3463825,23.933578 30.5285165,23.9267156 C32.9549598,23.8524404 36.1079289,23.3050642 36.0315371,21.7533578 C35.9213722,19.4924037 33.638867,18.2353761 30.4577536,18.5022018" id="Fill-9" fill="#FEFEFE"></path>
                    <path d="M4.45367938,14.9078055 L2.81809175,14.9009431 C2.81809175,14.9009431 3.36087526,17.0819706 3.89240103,19.1511817 L8.66366907,18.8371266 L4.45367938,14.9078055 Z" id="Fill-11" fill="#FEFEFE"></path>
                    <polygon id="Fill-13" fill="#FEFEFE" points="21.8043773 17.7933982 18.4182124 13.0837835 16.4625835 13.0837835 17.1388515 18.209178"></polygon>
                </g>
            </g>
        </g>
    </g>
</svg>