<?xml version="1.0" encoding="UTF-8"?>
<svg width="14px" height="11px" viewBox="0 0 14 11" version="1.1" xmlns="http://www.w3.org/2000/svg" xmlns:xlink="http://www.w3.org/1999/xlink">
    <!-- Generator: Sketch 48.1 (47250) - http://www.bohemiancoding.com/sketch -->
    <title>Shape</title>
    <desc>Created with Sketch.</desc>
    <defs></defs>
    <g id="GrumpyReport_1440" stroke="none" stroke-width="1" fill="none" fill-rule="evenodd" transform="translate(-1054.000000, -6485.000000)">
        <g id="Content" transform="translate(110.000000, 90.000000)" fill="#46ADE9">
            <g id="Geographical-Observation-Grumpy" transform="translate(0.000000, 5584.000000)">
                <g id="Buttons-under-the-Grumpy-Map" transform="translate(775.000000, 701.000000)">
                    <g id="Share-window" transform="translate(92.000000, 67.000000)">
                        <g id="socials" transform="translate(24.000000, 32.000000)">
                            <g id="Twitter" transform="translate(44.000000, 0.000000)">
                                <path d="M21.3502832,12.7392716 C21.9436697,12.3958136 22.3986562,11.851776 22.6132188,11.2027776 C22.0581978,11.521232 21.4437813,11.7523105 20.7892942,11.8770545 C20.265534,11.3374132 19.5189696,11 18.6928323,11 C17.1067738,11 15.8208189,12.2433182 15.8208189,13.7770645 C15.8208189,13.9944048 15.8461117,14.2062497 15.8952764,14.4098516 C13.5080892,14.2939002 11.39145,13.1885148 9.97476808,11.5083179 C9.7275237,11.9182695 9.5859976,12.395264 9.5859976,12.904681 C9.5859976,13.8680122 10.0929907,14.7181396 10.8637111,15.2160164 C10.3930942,15.2014538 9.95004364,15.076435 9.56269411,14.8684368 C9.56240992,14.879977 9.56240992,14.891792 9.56240992,14.9036069 C9.56240992,16.2488635 10.5525242,17.3710096 11.8666139,17.6265424 C11.6256217,17.6897387 11.3718409,17.7238098 11.1098187,17.7238098 C10.9245275,17.7238098 10.7446359,17.7064995 10.5692914,17.6738023 C10.9350425,18.7769896 11.9956357,19.5801319 13.2523192,19.602388 C12.2693096,20.3472798 11.0310984,20.7913024 9.68517955,20.7913024 C9.45356556,20.7913024 9.22479346,20.7781136 9,20.7522856 C10.2714613,21.5405905 11.781073,22 13.4029393,22 C18.686296,22 21.5750766,17.7685967 21.5750766,14.098816 C21.5750766,13.9784683 21.5725189,13.8583954 21.5671193,13.7391467 C22.1281083,13.3484288 22.6152082,12.8590698 23,12.3021182 C22.4853338,12.5233052 21.9314496,12.6725034 21.3502832,12.7392716 Z" id="Shape"></path>
                            </g>
                        </g>
                    </g>
                </g>
            </g>
        </g>
    </g>
</svg>